<?xml version="1.0" encoding="utf-8"?>
<!-- Generator: Adobe Illustrator 23.0.3, SVG Export Plug-In . SVG Version: 6.00 Build 0)  -->
<svg version="1.1" xmlns="http://www.w3.org/2000/svg" xmlns:xlink="http://www.w3.org/1999/xlink" x="0px" y="0px"
	 viewBox="0 0 100 100" style="enable-background:new 0 0 100 100;" xml:space="preserve">
<style type="text/css">
	.st0{fill:#961520;}
	.st1{fill:#BD9954;}
</style>
<g id="Layer_3">
	<path class="st0" d="M0,0v100h100V0H0z M94,94H7V7h87V94z"/>
</g>
<g id="Layer_1">
	<path class="st1" d="M4.9,8.3c0,0.1,0,0.5,0,0.7C4.8,9,4.4,8.8,4.3,8.7c0-0.2,0.1-0.3,0.1-0.5c0,0,0.1,0,0.1,0
		C4.6,8.3,4.8,8.3,4.9,8.3z"/>
	<path class="st1" d="M4.9,34.2c0,0.2,0,0.6,0,0.7c-0.1,0-0.5-0.2-0.6-0.3c0-0.2,0.1-0.3,0.1-0.5C4.6,34.1,4.7,34.1,4.9,34.2z"/>
	<path class="st1" d="M3.9,1.9c0,0.1,0,0.5,0,0.7c-0.1,0-0.5-0.2-0.6-0.3c0-0.1,0.1-0.4,0.1-0.5c0,0,0,0,0,0
		C3.6,1.8,3.8,1.8,3.9,1.9z"/>
	<path class="st1" d="M7.1,1.7c0,0.2,0.1,0.3,0.1,0.5c0,0-0.1,0.1-0.1,0.1C7,2.4,6.8,2.5,6.6,2.6c0-0.1,0-0.5,0-0.7
		C6.8,1.8,6.9,1.8,7.1,1.7z"/>
	<path class="st1" d="M14.6,1.7c0.2,0,0.3,0.1,0.5,0.1c0,0,0,0,0,0.1c0,0.2,0,0.4,0,0.5c0,0,0,0,0,0.1c-0.1,0-0.5-0.2-0.6-0.3
		C14.5,2.1,14.6,1.9,14.6,1.7z"/>
	<path class="st1" d="M18.3,1.7c0.1,0.2,0.1,0.3,0.1,0.5c-0.1,0.1-0.5,0.3-0.6,0.3c0-0.1,0-0.5,0-0.7C18,1.8,18.1,1.8,18.3,1.7z"/>
	<path class="st1" d="M25.7,2.2c0-0.2,0.1-0.3,0.1-0.5c0.1,0,0.2,0,0.2,0.1c0.1,0,0.2,0,0.2,0.1c0,0.1,0,0.1,0,0.2
		c0,0.1,0,0.2,0,0.2c0,0.1,0,0.1,0,0.2c0,0,0,0-0.1,0C26.1,2.5,25.9,2.4,25.7,2.2C25.7,2.3,25.7,2.3,25.7,2.2z"/>
	<path class="st1" d="M29.6,2.2c-0.1,0.1-0.5,0.3-0.6,0.3c0-0.1,0-0.5,0-0.7c0.1,0,0.1,0,0.2-0.1c0.1,0,0.2,0,0.2-0.1
		C29.6,1.9,29.6,2.1,29.6,2.2z"/>
	<path class="st1" d="M4.4,47c0.2,0,0.3,0.1,0.5,0.1c0,0,0,0,0,0.1c0,0.2,0,0.4,0,0.5c0,0,0,0,0,0.1c-0.1,0-0.5-0.2-0.6-0.3
		C4.3,47.3,4.4,47.1,4.4,47z"/>
	<path class="st1" d="M4.4,21.1c0.2,0,0.3,0.1,0.5,0.1c0,0,0,0,0,0.1c0,0.2,0,0.4,0,0.6c0,0,0,0,0,0c-0.1,0-0.5-0.2-0.6-0.3
		C4.3,21.5,4.4,21.3,4.4,21.1z"/>
	<path class="st1" d="M4.9,41.3c-0.2-0.1-0.4-0.2-0.6-0.3c0-0.1,0-0.4,0.1-0.5c0.2,0,0.3,0.1,0.5,0.1C4.9,40.8,4.9,41.1,4.9,41.3z"
		/>
	<path class="st1" d="M4.4,14.7c0.2,0,0.3,0.1,0.5,0.1c0,0.1,0,0.4,0,0.7c0,0,0,0-0.1,0c-0.2-0.1-0.3-0.2-0.5-0.3c0,0,0,0,0,0
		C4.3,15.1,4.4,14.8,4.4,14.7z"/>
	<path class="st1" d="M4.9,28.4c-0.1-0.1-0.5-0.2-0.6-0.3c0-0.1,0-0.4,0.1-0.5c0.1,0,0.2,0,0.2,0.1c0.1,0,0.2,0,0.2,0.1
		C4.9,27.8,4.9,28.2,4.9,28.4z"/>
	<path class="st1" d="M3.9,1.5C3.9,1.6,3.9,1.6,3.9,1.5C3.7,1.6,3.6,1.7,3.4,1.7c-0.1-0.1,0-0.2-0.1-0.3c0-0.1,0-0.2,0-0.2
		C3.4,1.1,3.5,1.1,3.6,1c0.1,0,0.2-0.1,0.3-0.1C3.9,1,3.9,1.4,3.9,1.5z"/>
	<path class="st1" d="M6.6,0.9C6.9,1,7,1.1,7.2,1.2c0,0.2-0.1,0.3-0.1,0.5C7,1.7,7,1.7,6.9,1.6c-0.1,0-0.2,0-0.2-0.1
		C6.6,1.4,6.6,1.1,6.6,0.9z"/>
	<path class="st1" d="M15.1,0.9c0,0.2,0,0.4,0,0.7c-0.2,0.1-0.3,0.1-0.5,0.2c-0.1-0.1,0-0.2-0.1-0.2c0-0.1,0-0.2,0-0.2
		C14.6,1.1,14.9,0.9,15.1,0.9z"/>
	<path class="st1" d="M17.9,0.9c0.2,0.1,0.5,0.2,0.6,0.3c0,0.2-0.1,0.3-0.1,0.5c-0.1,0-0.4-0.1-0.5-0.1C17.8,1.4,17.8,1,17.9,0.9
		C17.8,0.9,17.9,0.9,17.9,0.9z"/>
	<path class="st1" d="M26.3,1.5c-0.1,0.1-0.3,0.1-0.5,0.1c-0.1-0.1,0-0.2-0.1-0.3c0-0.1,0-0.2,0-0.2c0.1-0.1,0.4-0.3,0.6-0.3
		C26.3,1,26.3,1.4,26.3,1.5z"/>
	<path class="st1" d="M29.1,0.9c0.2,0.1,0.4,0.2,0.6,0.3c0,0.2-0.1,0.3-0.1,0.5c-0.1,0-0.2,0-0.2-0.1c-0.1,0-0.2,0-0.2-0.1
		C29,1.4,29,1.1,29.1,0.9z"/>
	<path class="st1" d="M4.3,33.5c0.1-0.1,0.5-0.3,0.6-0.3c0,0.1,0,0.5,0,0.7c-0.1,0.1-0.3,0.1-0.5,0.1C4.4,33.9,4.3,33.6,4.3,33.5z"
		/>
	<path class="st1" d="M4.3,20.6c0.1-0.1,0.5-0.3,0.6-0.3c0,0.1,0,0.5,0,0.7C4.8,21,4.6,21,4.4,21.1C4.4,21,4.3,20.7,4.3,20.6z"/>
	<path class="st1" d="M19.8,5.3c-0.2-0.1-0.4-0.2-0.6-0.3c0.1-0.1,0.2-0.1,0.3-0.2s0.2-0.1,0.3-0.2c0.1,0.1,0.2,0.2,0.4,0.3
		C20.1,5,19.9,5.2,19.8,5.3z"/>
	<path class="st1" d="M4.9,7.3c0,0.2,0,0.5,0,0.7C4.8,8.1,4.6,8.1,4.4,8.2c0-0.2-0.1-0.3-0.1-0.5c0,0,0,0,0,0
		C4.5,7.5,4.7,7.4,4.9,7.3z"/>
	<path class="st1" d="M4.9,14.5c-0.1,0.1-0.3,0.1-0.5,0.1c-0.1-0.1,0-0.2-0.1-0.3c0-0.1,0-0.2,0-0.2C4.4,14,4.5,14,4.6,13.9
		c0.1,0,0.2-0.1,0.3-0.1C4.9,13.9,4.9,14.3,4.9,14.5z"/>
	<path class="st1" d="M4.4,27.5c0-0.2-0.1-0.3-0.1-0.5c0.2-0.1,0.4-0.2,0.6-0.3c0,0,0,0,0,0c0,0.2,0,0.4,0,0.6
		c-0.1,0.1-0.3,0.1-0.4,0.1C4.5,27.5,4.5,27.5,4.4,27.5z"/>
	<path class="st1" d="M4.4,40.5c0-0.2-0.1-0.3-0.1-0.5c0.1-0.1,0.5-0.3,0.6-0.3c0,0.1,0,0.5,0,0.7c0,0,0,0,0,0
		C4.7,40.4,4.6,40.4,4.4,40.5z"/>
	<path class="st1" d="M4.3,46.4c0.1-0.1,0.5-0.3,0.6-0.3c0,0.1,0,0.5,0,0.7c-0.1,0.1-0.3,0.1-0.5,0.1C4.4,46.8,4.3,46.6,4.3,46.4z"
		/>
	<path class="st1" d="M3,24.7c-0.1-0.1-0.3-0.2-0.4-0.4c0.1-0.1,0.2-0.2,0.4-0.3C3,24,3.1,24,3.2,24.1c0.1,0,0.1,0.1,0.2,0.1
		c0.1,0,0.1,0.1,0.2,0.1C3.3,24.4,3.2,24.6,3,24.7z"/>
	<path class="st1" d="M3.5,30.8C3.3,30.9,3.2,31,3,31.1c-0.1-0.1-0.2-0.2-0.4-0.3c0.1-0.1,0.2-0.2,0.4-0.3
		C3.1,30.5,3.4,30.7,3.5,30.8z"/>
	<path class="st1" d="M2.6,4.9C2.7,4.8,2.8,4.7,3,4.6c0.2,0.1,0.4,0.2,0.6,0.4C3.4,5.1,3.2,5.2,3,5.3C2.9,5.2,2.7,5.1,2.6,4.9z"/>
	<path class="st1" d="M8.6,5.3C8.4,5.2,8.2,5.1,8,5c0.1-0.1,0.4-0.3,0.6-0.4c0,0,0,0,0,0c0.1,0.1,0.2,0.2,0.3,0.3
		C8.9,5,8.8,5.2,8.6,5.3z"/>
	<path class="st1" d="M12.8,4.9c0.1-0.1,0.2-0.2,0.4-0.3c0.1,0,0.1,0.1,0.2,0.1c0.1,0,0.1,0.1,0.2,0.1c0.1,0,0.1,0.1,0.2,0.1
		c-0.2,0.1-0.3,0.2-0.5,0.3c0,0,0,0-0.1,0C13,5.2,12.9,5.1,12.8,4.9z"/>
	<path class="st1" d="M24,5c0.1-0.1,0.2-0.2,0.4-0.4c0.2,0.1,0.4,0.2,0.6,0.4c-0.2,0.1-0.4,0.2-0.6,0.4c-0.1,0-0.1-0.1-0.2-0.2
		C24.1,5.1,24,5,24,5z"/>
	<path class="st1" d="M31.4,5c-0.1,0.1-0.2,0.2-0.4,0.4c-0.2-0.1-0.4-0.2-0.6-0.4c0.2-0.1,0.4-0.2,0.6-0.4C31.1,4.7,31.2,4.8,31.4,5
		z"/>
	<path class="st1" d="M3,36.9c0.2,0.1,0.4,0.2,0.6,0.4c-0.2,0.1-0.4,0.2-0.6,0.4c-0.1,0-0.1-0.1-0.2-0.2c-0.1,0-0.1-0.1-0.2-0.2
		C2.7,37.1,2.9,37,3,36.9z"/>
	<path class="st1" d="M2.6,43.7c0.1-0.1,0.2-0.2,0.4-0.3c0.1,0,0.4,0.2,0.6,0.3C3.4,43.8,3.2,43.9,3,44C2.9,44,2.8,43.9,2.6,43.7z"
		/>
	<path class="st1" d="M2.9,11.8c-0.1-0.1-0.2-0.2-0.4-0.3c0.1-0.1,0.2-0.2,0.4-0.4c0.1,0,0.4,0.2,0.6,0.3
		C3.4,11.5,3.1,11.7,2.9,11.8z"/>
	<path class="st1" d="M2.6,17.9c0.1-0.1,0.2-0.2,0.4-0.3c0.1,0,0.4,0.2,0.6,0.3c-0.1,0.1-0.3,0.2-0.6,0.4
		C2.9,18.2,2.8,18.1,2.6,17.9z"/>
	<path class="st1" d="M23.4,5.8c0-0.2,0-0.5,0-0.7c0.1,0,0.2-0.1,0.2-0.1c0.1,0,0.2,0,0.2-0.1C24,5.2,24,5.3,24,5.5
		C24,5.5,23.7,5.7,23.4,5.8z"/>
	<path class="st1" d="M2,31c0.2,0,0.3-0.1,0.5-0.1c0.1,0.2,0.1,0.3,0.1,0.5c-0.1,0.1-0.5,0.3-0.6,0.3C2,31.5,2,31.1,2,31z"/>
	<path class="st1" d="M2,18c0.2,0,0.3-0.1,0.5-0.1c0.1,0.2,0.1,0.3,0.1,0.5c-0.1,0.1-0.5,0.3-0.6,0.3C2,18.6,2,18.2,2,18z"/>
	<path class="st1" d="M8.9,5.5c0-0.1,0-0.2,0.1-0.4C9,5.1,9,5,9,5c0.2,0,0.3,0.1,0.5,0.1c0,0.1,0,0.2,0,0.3c0,0.1,0,0.2,0,0.3
		c-0.1,0-0.2-0.1-0.3-0.1C9.1,5.6,9,5.6,8.9,5.5z"/>
	<path class="st1" d="M12.2,5.8c0-0.2,0-0.5,0-0.7c0.1,0,0.2-0.1,0.2-0.1c0.1,0,0.2,0,0.2-0.1c0,0.2,0.1,0.3,0.1,0.5
		C12.7,5.5,12.5,5.7,12.2,5.8z"/>
	<path class="st1" d="M20.1,5.5c0-0.2,0.1-0.3,0.1-0.5c0.1,0,0.3,0.1,0.4,0.1c0,0,0.1,0,0.1,0c0,0.1,0,0.5,0,0.7
		C20.6,5.8,20.2,5.6,20.1,5.5z"/>
	<path class="st1" d="M31.3,5.5c0-0.2,0.1-0.3,0.1-0.5c0.2,0,0.3,0.1,0.5,0.1c0,0.1,0,0.5,0,0.7C31.8,5.8,31.4,5.6,31.3,5.5z"/>
	<path class="st1" d="M2.6,37.8c-0.1,0.1-0.4,0.3-0.6,0.3c0-0.1,0-0.5,0-0.7c0.1-0.1,0.3-0.1,0.5-0.2C2.6,37.4,2.6,37.6,2.6,37.8z"
		/>
	<path class="st1" d="M2.1,5.8c0-0.1,0-0.5,0-0.7c0.1,0,0.1,0,0.2-0.1C2.3,5,2.4,5,2.5,5c0.1,0.2,0.1,0.3,0.1,0.5
		C2.5,5.6,2.2,5.8,2.1,5.8z"/>
	<path class="st1" d="M2,43.9c0.2,0,0.3-0.1,0.5-0.1c0.1,0.2,0.1,0.3,0.1,0.5c-0.1,0.1-0.4,0.3-0.6,0.3C2,44.4,2,44,2,43.9z"/>
	<path class="st1" d="M2.6,11.9C2.5,12,2.2,12.2,2,12.3c0-0.1,0-0.6,0-0.7c0,0,0,0,0,0c0.1,0,0.3-0.1,0.4-0.1
		C2.6,11.6,2.6,11.8,2.6,11.9z"/>
	<path class="st1" d="M2,24.5c0,0,0.1,0,0.1,0c0.1,0,0.2-0.1,0.4-0.1c0.1,0.2,0.1,0.3,0.1,0.5c-0.1,0.1-0.4,0.3-0.6,0.3
		C2,25.1,2,24.6,2,24.5z"/>
	<path class="st1" d="M12.8,4.4c0,0.2-0.1,0.3-0.1,0.5c-0.2,0-0.3-0.1-0.5-0.1c0-0.1,0-0.2,0-0.3c0-0.1,0-0.2,0-0.3
		C12.4,4.1,12.6,4.3,12.8,4.4z"/>
	<path class="st1" d="M20.2,4.9c0-0.2-0.1-0.3-0.1-0.5c0.1-0.1,0.5-0.3,0.6-0.3c0,0.1,0,0.5,0,0.7c-0.1,0-0.2,0.1-0.2,0.1
		C20.4,4.9,20.3,4.9,20.2,4.9z"/>
	<path class="st1" d="M23.4,4.8c0-0.1,0-0.5,0-0.7c0.1,0,0.2,0.1,0.3,0.1c0.1,0,0.2,0.1,0.3,0.2c0,0.1,0,0.2,0,0.2
		c0,0.1,0,0.2-0.1,0.2C23.8,4.9,23.6,4.8,23.4,4.8z"/>
	<path class="st1" d="M31.9,4.1c0,0.2,0,0.6,0,0.7c-0.1,0.1-0.3,0.1-0.5,0.1c0-0.2-0.1-0.3-0.1-0.5C31.4,4.3,31.8,4.2,31.9,4.1z"/>
	<path class="st1" d="M2,37.1c0-0.2,0-0.5,0-0.7c0,0,0,0,0,0c0.2,0.1,0.3,0.2,0.5,0.2c0,0,0.1,0,0.1,0.1c0,0.1-0.1,0.3-0.1,0.5
		c-0.1,0-0.2,0-0.2,0C2.2,37.1,2.1,37.1,2,37.1z"/>
	<path class="st1" d="M2,4.8c0-0.1,0-0.5,0-0.7c0.1,0,0.5,0.2,0.6,0.3c0,0.2-0.1,0.3-0.1,0.5C2.4,4.9,2.2,4.8,2,4.8z"/>
	<path class="st1" d="M9,4.9c0-0.2-0.1-0.3-0.1-0.5C9,4.3,9.3,4.2,9.5,4.1c0,0.1,0,0.5,0,0.7C9.4,4.8,9.3,4.8,9.3,4.9
		C9.2,4.9,9.1,4.9,9,4.9z"/>
	<path class="st1" d="M2,30.6c0-0.1,0-0.5,0-0.7c0,0,0,0,0,0c0,0,0.1,0,0.1,0.1c0.1,0.1,0.3,0.2,0.4,0.2c0,0.2-0.1,0.3-0.1,0.5
		c0,0,0,0,0,0C2.3,30.7,2.2,30.7,2,30.6z"/>
	<path class="st1" d="M2,24.1c0-0.1,0-0.5,0-0.7c0.1,0,0.2,0.1,0.3,0.1c0.1,0,0.2,0.1,0.3,0.2c0,0.2-0.1,0.3-0.1,0.5
		c0,0-0.1,0-0.1,0C2.3,24.2,2.2,24.2,2,24.1z"/>
	<path class="st1" d="M2,17c0.1,0,0.4,0.2,0.6,0.3c0,0.1,0,0.2,0,0.3c0,0.1,0,0.2-0.1,0.2c-0.1,0-0.3-0.1-0.5-0.1c0,0,0-0.1,0-0.1
		C2,17.4,2,17.2,2,17z"/>
	<path class="st1" d="M2,42.8c0.1,0,0.5,0.2,0.6,0.3c0,0.1-0.1,0.3-0.1,0.5c-0.1,0-0.3-0.1-0.5-0.1c0-0.1,0-0.2,0-0.3
		C2,43.1,2,43,2,42.8z"/>
	<path class="st1" d="M2.5,11.4c-0.1,0-0.3-0.1-0.5-0.1c0,0,0-0.1,0-0.1c0-0.2,0-0.4,0-0.6c0.1,0,0.4,0.2,0.6,0.3c0,0.1,0,0.2,0,0.3
		C2.6,11.2,2.6,11.3,2.5,11.4z"/>
	<path class="st1" d="M4,7.8C4.1,7.9,4.2,8,4.3,8.1c0,0,0,0,0.1,0.1C4.2,8.3,4.1,8.4,4,8.5c-0.1,0-0.5-0.2-0.6-0.3
		C3.6,8,3.8,7.9,4,7.8z"/>
	<path class="st1" d="M3.4,14.6c0.2-0.1,0.4-0.2,0.6-0.3c0.1,0.1,0.3,0.2,0.4,0.4C4.2,14.8,4.1,14.9,4,15
		C3.8,14.9,3.6,14.8,3.4,14.6z"/>
	<path class="st1" d="M4,40.8c-0.2-0.1-0.4-0.2-0.6-0.3c0.1-0.1,0.4-0.3,0.6-0.4c0.1,0.1,0.2,0.2,0.4,0.3C4.3,40.6,4.1,40.7,4,40.8z
		"/>
	<path class="st1" d="M4,33.7c0.1,0.1,0.3,0.2,0.4,0.3c-0.1,0.1-0.2,0.2-0.4,0.3c-0.1,0-0.4-0.2-0.6-0.3C3.6,33.9,3.8,33.8,4,33.7z"
		/>
	<path class="st1" d="M3,2.1C2.8,2,2.6,1.8,2.4,1.7C2.6,1.6,2.8,1.5,3,1.4c0.1,0,0.1,0.1,0.2,0.2c0.1,0,0.1,0.1,0.2,0.2
		C3.2,1.8,3.1,1.9,3,2.1z"/>
	<path class="st1" d="M3.4,27.6c0.2-0.1,0.4-0.2,0.6-0.3c0.1,0.1,0.3,0.2,0.4,0.4c-0.1,0.1-0.2,0.2-0.4,0.3
		C3.9,27.8,3.5,27.6,3.4,27.6z"/>
	<path class="st1" d="M4,20.8C4,20.8,4,20.8,4,20.8c0.2,0.1,0.3,0.2,0.4,0.3c0,0,0,0,0,0c-0.1,0.1-0.2,0.2-0.3,0.3
		c-0.1,0-0.4-0.2-0.6-0.3C3.5,21,3.8,20.8,4,20.8z"/>
	<path class="st1" d="M7.2,1.7C7.2,1.7,7.2,1.7,7.2,1.7c0.1-0.1,0.2-0.3,0.4-0.4c0.1,0,0.4,0.2,0.6,0.3C8,1.8,7.7,2,7.6,2.1
		c0,0,0,0-0.1,0C7.4,1.9,7.3,1.8,7.2,1.7z"/>
	<path class="st1" d="M14.2,1.4c0.1,0.1,0.2,0.2,0.3,0.3c0,0,0,0,0.1,0.1c-0.1,0.1-0.2,0.2-0.4,0.3c-0.1,0-0.5-0.2-0.6-0.3
		C13.8,1.6,14,1.5,14.2,1.4z"/>
	<path class="st1" d="M19.3,1.7c-0.1,0.1-0.4,0.3-0.6,0.3c0,0,0,0-0.1-0.1c-0.1-0.1-0.2-0.2-0.3-0.3c0,0,0,0,0,0
		c0.1-0.1,0.2-0.2,0.3-0.3C18.9,1.4,19.2,1.6,19.3,1.7z"/>
	<path class="st1" d="M24.8,1.7c0.2-0.1,0.4-0.2,0.6-0.3c0.1,0,0.1,0.1,0.2,0.2c0.1,0,0.1,0.1,0.2,0.2c-0.1,0.1-0.2,0.2-0.4,0.3
		C25.3,2,24.9,1.8,24.8,1.7z"/>
	<path class="st1" d="M3.4,46.9c0.2-0.1,0.4-0.2,0.6-0.4c0.1,0.1,0.2,0.2,0.4,0.3C4.3,47,4.1,47.2,4,47.3
		C3.8,47.2,3.6,47.1,3.4,46.9z"/>
	<path class="st1" d="M30.5,1.7C30.4,1.8,30.2,1.9,30,2c0,0,0,0-0.1,0c-0.1-0.1-0.2-0.2-0.4-0.3c0-0.1,0.1-0.1,0.2-0.2
		c0.1-0.1,0.1-0.1,0.2-0.2c0.1,0,0.2,0.1,0.3,0.2C30.3,1.6,30.4,1.7,30.5,1.7z"/>
	<path class="st1" d="M5.1,53.7c0,0.1,0,0.5,0,0.7c-0.1,0-0.5-0.2-0.6-0.3c0-0.2,0.1-0.3,0.1-0.5c0,0,0.1,0,0.1,0
		C4.8,53.7,4.9,53.7,5.1,53.7z"/>
	<path class="st1" d="M5.1,79.6c0,0.2,0,0.6,0,0.7c-0.1,0-0.5-0.2-0.6-0.3c0-0.2,0.1-0.3,0.1-0.5C4.8,79.5,4.9,79.5,5.1,79.6z"/>
	<path class="st1" d="M4.6,92.4c0.2,0,0.3,0.1,0.5,0.1c0,0,0,0,0,0.1c0,0.2,0,0.4,0,0.5c0,0,0,0,0,0.1c-0.1,0-0.5-0.2-0.6-0.3
		C4.5,92.7,4.5,92.5,4.6,92.4z"/>
	<path class="st1" d="M4.6,66.5c0.2,0,0.3,0.1,0.5,0.1c0,0,0,0,0,0.1c0,0.2,0,0.4,0,0.6c0,0,0,0,0,0c-0.1,0-0.5-0.2-0.6-0.3
		C4.5,66.9,4.5,66.7,4.6,66.5z"/>
	<path class="st1" d="M5.1,86.7c-0.2-0.1-0.4-0.2-0.6-0.3c0-0.1,0-0.4,0.1-0.5c0.2,0,0.3,0.1,0.5,0.1C5.1,86.2,5.1,86.5,5.1,86.7z"
		/>
	<path class="st1" d="M4.6,60.1c0.2,0,0.3,0.1,0.5,0.1c0,0.1,0,0.4,0,0.7c0,0,0,0-0.1,0c-0.2-0.1-0.3-0.2-0.5-0.3c0,0,0,0,0,0
		C4.5,60.4,4.5,60.2,4.6,60.1z"/>
	<path class="st1" d="M5.1,73.8c-0.1-0.1-0.5-0.2-0.6-0.3c0-0.1,0-0.4,0.1-0.5c0.1,0,0.2,0,0.2,0.1c0.1,0,0.2,0,0.2,0.1
		C5.1,73.2,5.1,73.6,5.1,73.8z"/>
	<path class="st1" d="M4.5,78.9c0.1-0.1,0.5-0.3,0.6-0.3c0,0.1,0,0.5,0,0.7c-0.1,0.1-0.3,0.1-0.5,0.1C4.5,79.3,4.5,79,4.5,78.9z"/>
	<path class="st1" d="M4.5,66c0.1-0.1,0.5-0.3,0.6-0.3c0,0.1,0,0.5,0,0.7c-0.1,0.1-0.3,0.1-0.5,0.1C4.5,66.3,4.5,66.1,4.5,66z"/>
	<path class="st1" d="M5.1,52.7c0,0.2,0,0.5,0,0.7c-0.2,0.1-0.3,0.1-0.5,0.2c0-0.2-0.1-0.3-0.1-0.5c0,0,0,0,0,0
		C4.7,52.9,4.9,52.8,5.1,52.7z"/>
	<path class="st1" d="M5.1,59.9C4.9,59.9,4.8,60,4.6,60c-0.1-0.1,0-0.2-0.1-0.3c0-0.1,0-0.2,0-0.2c0.1-0.1,0.2-0.1,0.3-0.2
		c0.1,0,0.2-0.1,0.3-0.1C5.1,59.3,5.1,59.7,5.1,59.9z"/>
	<path class="st1" d="M4.6,72.9c0-0.2-0.1-0.3-0.1-0.5c0.2-0.1,0.4-0.2,0.6-0.3c0,0,0,0,0,0c0,0.2,0,0.4,0,0.6
		c-0.1,0.1-0.3,0.1-0.4,0.1C4.7,72.9,4.6,72.9,4.6,72.9z"/>
	<path class="st1" d="M4.6,85.8c0-0.2-0.1-0.3-0.1-0.5c0.1-0.1,0.5-0.3,0.6-0.3c0,0.1,0,0.5,0,0.7c0,0,0,0,0,0
		C4.9,85.7,4.7,85.8,4.6,85.8z"/>
	<path class="st1" d="M4.5,91.8c0.1-0.1,0.5-0.3,0.6-0.3c0,0.1,0,0.5,0,0.7c-0.1,0.1-0.3,0.1-0.5,0.1C4.5,92.2,4.5,91.9,4.5,91.8z"
		/>
	<path class="st1" d="M3.1,70.1C3,70,2.8,69.8,2.7,69.7c0.1-0.1,0.2-0.2,0.4-0.3c0.1,0,0.1,0.1,0.2,0.1c0.1,0,0.1,0.1,0.2,0.1
		c0.1,0,0.1,0.1,0.2,0.1C3.5,69.8,3.3,70,3.1,70.1z"/>
	<path class="st1" d="M3.7,76.2c-0.2,0.1-0.4,0.2-0.6,0.3c-0.1-0.1-0.2-0.2-0.4-0.3C2.9,76,3,75.9,3.1,75.8
		C3.2,75.9,3.5,76.1,3.7,76.2z"/>
	<path class="st1" d="M2.7,50.3C2.9,50.2,3,50.1,3.1,50c0.2,0.1,0.4,0.2,0.6,0.4c-0.2,0.1-0.4,0.2-0.6,0.4C3,50.6,2.9,50.5,2.7,50.3
		z"/>
	<path class="st1" d="M3.1,82.3c0.2,0.1,0.4,0.2,0.6,0.4c-0.2,0.1-0.4,0.2-0.6,0.4c-0.1,0-0.1-0.1-0.2-0.2c-0.1,0-0.1-0.1-0.2-0.2
		C2.9,82.5,3,82.4,3.1,82.3z"/>
	<path class="st1" d="M2.7,89.1C2.9,89,3,88.9,3.1,88.8c0.1,0,0.4,0.2,0.6,0.3c-0.1,0.1-0.3,0.2-0.6,0.3C3,89.4,2.9,89.3,2.7,89.1z"
		/>
	<path class="st1" d="M3.1,57.1C3,57,2.9,56.9,2.7,56.8c0.1-0.1,0.2-0.2,0.4-0.4c0.1,0,0.4,0.2,0.6,0.3C3.6,56.9,3.2,57.1,3.1,57.1z
		"/>
	<path class="st1" d="M2.7,63.3C2.9,63.1,3,63,3.1,62.9c0.1,0,0.4,0.2,0.6,0.3c-0.1,0.1-0.3,0.2-0.6,0.4C3,63.6,2.9,63.5,2.7,63.3z"
		/>
	<path class="st1" d="M2.2,76.4c0.2,0,0.3-0.1,0.5-0.1c0.1,0.2,0.1,0.3,0.1,0.5C2.7,76.8,2.3,77,2.2,77C2.2,76.9,2.2,76.5,2.2,76.4z
		"/>
	<path class="st1" d="M2.2,63.4c0.2,0,0.3-0.1,0.5-0.1c0.1,0.2,0.1,0.3,0.1,0.5c-0.1,0.1-0.5,0.3-0.6,0.3C2.2,64,2.2,63.6,2.2,63.4z
		"/>
	<path class="st1" d="M2.8,83.2c-0.1,0.1-0.4,0.3-0.6,0.3c0-0.1,0-0.5,0-0.7c0.1-0.1,0.3-0.1,0.5-0.2C2.7,82.8,2.8,83,2.8,83.2z"/>
	<path class="st1" d="M2.2,51.2c0-0.1,0-0.5,0-0.7c0.1,0,0.1,0,0.2-0.1c0.1,0,0.2,0,0.2-0.1c0.1,0.2,0.1,0.3,0.1,0.5
		C2.7,51,2.3,51.1,2.2,51.2z"/>
	<path class="st1" d="M2.2,89.3c0.2,0,0.3-0.1,0.5-0.1c0.1,0.2,0.1,0.3,0.1,0.5c-0.1,0.1-0.4,0.3-0.6,0.3
		C2.2,89.8,2.2,89.4,2.2,89.3z"/>
	<path class="st1" d="M2.8,57.3c-0.1,0.1-0.5,0.3-0.6,0.3c0-0.1,0-0.6,0-0.7c0,0,0,0,0,0c0.1,0,0.3-0.1,0.4-0.1
		C2.7,57,2.8,57.2,2.8,57.3z"/>
	<path class="st1" d="M2.2,69.9c0,0,0.1,0,0.1,0c0.1,0,0.2-0.1,0.4-0.1c0.1,0.2,0.1,0.3,0.1,0.5c-0.1,0.1-0.4,0.3-0.6,0.3
		C2.2,70.5,2.2,70,2.2,69.9z"/>
	<path class="st1" d="M2.2,82.5c0-0.2,0-0.5,0-0.7c0,0,0,0,0,0c0.2,0.1,0.3,0.2,0.5,0.2c0,0,0.1,0,0.1,0.1c0,0.1-0.1,0.3-0.1,0.5
		c-0.1,0-0.2,0-0.2,0C2.3,82.5,2.3,82.5,2.2,82.5z"/>
	<path class="st1" d="M2.2,50.2c0-0.1,0-0.5,0-0.7c0.1,0,0.5,0.2,0.6,0.3c0,0.2-0.1,0.3-0.1,0.5C2.6,50.3,2.4,50.2,2.2,50.2z"/>
	<path class="st1" d="M2.2,76c0-0.1,0-0.5,0-0.7c0,0,0,0,0,0c0,0,0.1,0,0.1,0.1c0.1,0.1,0.3,0.2,0.4,0.2c0,0.2-0.1,0.3-0.1,0.5
		c0,0,0,0,0,0C2.5,76.1,2.3,76,2.2,76z"/>
	<path class="st1" d="M2.2,69.5c0-0.1,0-0.5,0-0.7c0.1,0,0.2,0.1,0.3,0.1c0.1,0,0.2,0.1,0.3,0.2c0,0.2-0.1,0.3-0.1,0.5
		c0,0-0.1,0-0.1,0C2.5,69.6,2.3,69.6,2.2,69.5z"/>
	<path class="st1" d="M2.2,62.4c0.1,0,0.4,0.2,0.6,0.3c0,0.1,0,0.2,0,0.3c0,0.1,0,0.2-0.1,0.2c-0.1,0-0.3-0.1-0.5-0.1
		c0,0,0-0.1,0-0.1C2.2,62.8,2.2,62.6,2.2,62.4z"/>
	<path class="st1" d="M2.2,88.2c0.1,0,0.5,0.2,0.6,0.3c0,0.1-0.1,0.4-0.1,0.5c-0.1,0-0.3-0.1-0.5-0.1c0-0.1,0-0.2,0-0.3
		C2.2,88.5,2.2,88.4,2.2,88.2z"/>
	<path class="st1" d="M2.7,56.7c-0.1,0-0.3-0.1-0.5-0.1c0,0,0-0.1,0-0.1c0-0.2,0-0.4,0-0.6c0.1,0,0.4,0.2,0.6,0.3c0,0.1,0,0.2,0,0.3
		C2.7,56.6,2.7,56.7,2.7,56.7z"/>
	<path class="st1" d="M4.1,53.2c0.1,0.1,0.2,0.2,0.3,0.3c0,0,0,0,0.1,0.1c-0.1,0.1-0.2,0.2-0.4,0.3c-0.1,0-0.5-0.2-0.6-0.3
		C3.8,53.4,4,53.3,4.1,53.2z"/>
	<path class="st1" d="M3.6,60c0.2-0.1,0.4-0.2,0.6-0.3c0.1,0.1,0.3,0.2,0.4,0.4c-0.1,0.1-0.2,0.2-0.4,0.3C4,60.3,3.8,60.1,3.6,60z"
		/>
	<path class="st1" d="M4.1,86.2C4,86.1,3.8,86,3.6,85.9c0.1-0.1,0.4-0.3,0.6-0.4c0.1,0.1,0.2,0.2,0.4,0.3C4.5,86,4.3,86.1,4.1,86.2z
		"/>
	<path class="st1" d="M4.1,79.1c0.1,0.1,0.3,0.2,0.4,0.3c-0.1,0.1-0.2,0.2-0.4,0.3c-0.1,0-0.4-0.2-0.6-0.3C3.8,79.3,4,79.2,4.1,79.1
		z"/>
	<path class="st1" d="M3.6,72.9c0.2-0.1,0.4-0.2,0.6-0.3c0.1,0.1,0.3,0.2,0.4,0.4c-0.1,0.1-0.2,0.2-0.4,0.3C4,73.2,3.7,73,3.6,72.9z
		"/>
	<path class="st1" d="M4.1,66.2C4.2,66.2,4.2,66.2,4.1,66.2c0.2,0.1,0.3,0.2,0.4,0.3c0,0,0,0,0,0c-0.1,0.1-0.2,0.2-0.3,0.3
		c-0.1,0-0.4-0.2-0.6-0.3C3.7,66.4,4,66.2,4.1,66.2z"/>
	<path class="st1" d="M3.6,92.3C3.8,92.2,4,92.1,4.1,92c0.1,0.1,0.2,0.2,0.4,0.3c-0.1,0.1-0.2,0.3-0.4,0.4C4,92.6,3.8,92.4,3.6,92.3
		z"/>
	<path class="st1" d="M37.1,2.3c0-0.1,0-0.4,0.1-0.5c0.2,0,0.3,0.1,0.5,0.1c0,0.1,0,0.5,0,0.7c0,0,0,0,0,0
		C37.5,2.5,37.3,2.4,37.1,2.3z"/>
	<path class="st1" d="M40.5,1.9c0.2,0,0.3-0.1,0.5-0.1c0,0,0,0,0,0.1c0,0.1,0.1,0.3,0.1,0.4c-0.1,0.1-0.4,0.3-0.6,0.3h0v0
		c0-0.2,0-0.3,0-0.5C40.5,2,40.5,2,40.5,1.9z"/>
	<path class="st1" d="M48.9,1.9c0,0.1,0,0.5,0,0.7c-0.1,0-0.5-0.2-0.6-0.3c0-0.1,0.1-0.4,0.1-0.5c0,0,0,0,0,0
		C48.6,1.8,48.8,1.8,48.9,1.9z"/>
	<path class="st1" d="M52.2,1.7c0,0.2,0.1,0.3,0.1,0.5c0,0-0.1,0.1-0.1,0.1c-0.2,0.1-0.3,0.2-0.5,0.2c0-0.1,0-0.5,0-0.7
		C51.8,1.8,52,1.8,52.2,1.7z"/>
	<path class="st1" d="M59.7,1.7c0.2,0,0.3,0.1,0.5,0.1c0,0,0,0,0,0.1c0,0.2,0,0.4,0,0.5c0,0,0,0,0,0.1c-0.1,0-0.5-0.2-0.6-0.3
		C59.6,2.1,59.6,1.9,59.7,1.7z"/>
	<path class="st1" d="M63.3,1.7c0.1,0.2,0.1,0.3,0.1,0.5c-0.1,0.1-0.5,0.3-0.6,0.3c0-0.1,0-0.5,0-0.7C63,1.8,63.2,1.8,63.3,1.7z"/>
	<path class="st1" d="M70.8,2.2c0-0.2,0.1-0.3,0.1-0.5c0.1,0,0.2,0,0.2,0.1c0.1,0,0.2,0,0.2,0.1c0,0.1,0,0.1,0,0.2
		c0,0.1,0,0.2,0,0.2c0,0.1,0,0.1,0,0.2c0,0,0,0-0.1,0C71.1,2.5,71,2.4,70.8,2.2C70.8,2.3,70.8,2.3,70.8,2.2z"/>
	<path class="st1" d="M74.7,2.2c-0.1,0.1-0.5,0.3-0.6,0.3c0-0.1,0-0.5,0-0.7c0.1,0,0.1,0,0.2-0.1c0.1,0,0.2,0,0.2-0.1
		C74.6,1.9,74.6,2.1,74.7,2.2z"/>
	<path class="st1" d="M37.7,0.9c0,0.2,0,0.4,0,0.7c-0.2,0.1-0.3,0.1-0.5,0.2c0,0,0,0,0-0.1c0-0.1-0.1-0.3-0.1-0.4
		C37.2,1.1,37.5,0.9,37.7,0.9z"/>
	<path class="st1" d="M40.5,0.9c0.1,0,0.5,0.2,0.6,0.3c0,0.1-0.1,0.4-0.1,0.5c-0.2,0-0.3-0.1-0.5-0.1C40.5,1.4,40.5,1,40.5,0.9z"/>
	<path class="st1" d="M48.9,1.5C48.9,1.6,48.9,1.6,48.9,1.5c-0.2,0.1-0.3,0.1-0.5,0.2c-0.1-0.1,0-0.2-0.1-0.3c0-0.1,0-0.2,0-0.2
		c0.1-0.1,0.2-0.1,0.3-0.2c0.1,0,0.2-0.1,0.3-0.1C49,1,49,1.4,48.9,1.5z"/>
	<path class="st1" d="M51.7,0.9c0.2,0.1,0.4,0.2,0.6,0.3c0,0.2-0.1,0.3-0.1,0.5c-0.1,0-0.2,0-0.2-0.1c-0.1,0-0.2,0-0.2-0.1
		C51.7,1.4,51.7,1.1,51.7,0.9z"/>
	<path class="st1" d="M60.1,0.9c0,0.2,0,0.4,0,0.7c-0.2,0.1-0.3,0.1-0.5,0.2c-0.1-0.1,0-0.2-0.1-0.2c0-0.1,0-0.2,0-0.2
		C59.6,1.1,60,0.9,60.1,0.9z"/>
	<path class="st1" d="M62.9,0.9c0.2,0.1,0.5,0.2,0.6,0.3c0,0.2-0.1,0.3-0.1,0.5c-0.1,0-0.4-0.1-0.5-0.1C62.9,1.4,62.9,1,62.9,0.9
		C62.9,0.9,62.9,0.9,62.9,0.9z"/>
	<path class="st1" d="M71.3,1.5c-0.1,0.1-0.3,0.1-0.5,0.1c-0.1-0.1,0-0.2-0.1-0.3c0-0.1,0-0.2,0-0.2c0.1-0.1,0.4-0.3,0.6-0.3
		C71.4,1,71.4,1.4,71.3,1.5z"/>
	<path class="st1" d="M74.1,0.9c0.2,0.1,0.4,0.2,0.6,0.3c0,0.2-0.1,0.3-0.1,0.5c-0.1,0-0.2,0-0.2-0.1c-0.1,0-0.2,0-0.2-0.1
		C74.1,1.4,74.1,1.1,74.1,0.9z"/>
	<path class="st1" d="M64.8,5.3c-0.2-0.1-0.4-0.2-0.6-0.3c0.1-0.1,0.2-0.1,0.3-0.2c0.1-0.1,0.2-0.1,0.3-0.2c0.1,0.1,0.2,0.2,0.4,0.3
		C65.1,5,65,5.2,64.8,5.3z"/>
	<path class="st1" d="M36.4,5c-0.2,0.1-0.4,0.2-0.6,0.4c-0.1-0.1-0.3-0.2-0.4-0.3c0.1-0.1,0.2-0.2,0.4-0.4C35.9,4.6,36.2,4.8,36.4,5
		z"/>
	<path class="st1" d="M41.8,5c0.2-0.1,0.4-0.2,0.6-0.4c0.1,0.1,0.3,0.2,0.4,0.4c-0.1,0.1-0.2,0.2-0.4,0.3c-0.1,0-0.1-0.1-0.2-0.1
		c-0.1,0-0.1-0.1-0.2-0.1C42,5,41.9,5,41.8,5z"/>
	<path class="st1" d="M46.6,4.9c0.1-0.1,0.2-0.2,0.4-0.4c0.2,0.1,0.4,0.2,0.6,0.4c-0.2,0.1-0.4,0.2-0.6,0.4
		C46.9,5.2,46.8,5.1,46.6,4.9z"/>
	<path class="st1" d="M53.6,5.3C53.4,5.2,53.2,5.1,53,5c0.1-0.1,0.4-0.3,0.6-0.4c0,0,0,0,0,0c0.1,0.1,0.2,0.2,0.3,0.3
		C53.9,5,53.8,5.2,53.6,5.3z"/>
	<path class="st1" d="M57.8,4.9c0.1-0.1,0.2-0.2,0.4-0.3c0.1,0,0.1,0.1,0.2,0.1c0.1,0,0.1,0.1,0.2,0.1c0.1,0,0.1,0.1,0.2,0.1
		c-0.2,0.1-0.3,0.2-0.5,0.3c0,0,0,0-0.1,0C58.1,5.2,57.9,5.1,57.8,4.9z"/>
	<path class="st1" d="M69,5c0.1-0.1,0.2-0.2,0.4-0.4C69.6,4.7,69.8,4.8,70,5c-0.2,0.1-0.4,0.2-0.6,0.4c-0.1,0-0.1-0.1-0.2-0.2
		C69.1,5.1,69.1,5,69,5z"/>
	<path class="st1" d="M76.4,5c-0.1,0.1-0.2,0.2-0.4,0.4c-0.2-0.1-0.4-0.2-0.6-0.4c0.2-0.1,0.4-0.2,0.6-0.4C76.1,4.7,76.3,4.8,76.4,5
		z"/>
	<path class="st1" d="M68.5,5.8c0-0.2,0-0.5,0-0.7c0.1,0,0.2-0.1,0.2-0.1C68.8,5,68.9,5,69,5c0,0.2,0.1,0.3,0.1,0.5
		C69,5.5,68.7,5.7,68.5,5.8z"/>
	<path class="st1" d="M35.5,5.5c-0.1,0.1-0.4,0.3-0.6,0.3c0-0.1,0-0.5,0-0.7c0.1,0,0.1,0,0.2-0.1c0.1,0,0.2,0,0.2-0.1
		C35.4,5.1,35.4,5.3,35.5,5.5z"/>
	<path class="st1" d="M43.3,5.8c-0.2-0.1-0.5-0.2-0.6-0.3c0,0,0,0,0-0.1c0-0.1,0.1-0.3,0.1-0.4c0.2,0,0.3,0.1,0.5,0.1
		c0,0.1,0,0.2,0,0.2c0,0.1,0,0.1,0,0.2C43.3,5.6,43.3,5.7,43.3,5.8z"/>
	<path class="st1" d="M53.9,5.5c0-0.1,0-0.2,0.1-0.4c0,0,0-0.1,0-0.1c0.2,0,0.3,0.1,0.5,0.1c0,0.1,0,0.2,0,0.3c0,0.1,0,0.2,0,0.3
		c-0.1,0-0.2-0.1-0.3-0.1C54.1,5.6,54,5.6,53.9,5.5z"/>
	<path class="st1" d="M57.3,5.8c0-0.2,0-0.5,0-0.7c0.1,0,0.2-0.1,0.2-0.1c0.1,0,0.2,0,0.2-0.1c0,0.2,0.1,0.3,0.1,0.5
		C57.8,5.5,57.5,5.7,57.3,5.8z"/>
	<path class="st1" d="M65.1,5.5c0-0.2,0.1-0.3,0.1-0.5c0.1,0,0.3,0.1,0.4,0.1c0,0,0.1,0,0.1,0c0,0.1,0,0.5,0,0.7
		C65.6,5.8,65.3,5.6,65.1,5.5z"/>
	<path class="st1" d="M76.3,5.5c0-0.2,0.1-0.3,0.1-0.5c0.2,0,0.3,0.1,0.5,0.1c0,0.1,0,0.5,0,0.7C76.8,5.8,76.5,5.6,76.3,5.5z"/>
	<path class="st1" d="M46.1,5.8c0-0.1,0-0.5,0-0.7c0.1,0,0.1,0,0.2-0.1c0.1,0,0.2,0,0.2-0.1c0.1,0.2,0.1,0.3,0.1,0.5
		C46.6,5.6,46.2,5.8,46.1,5.8z"/>
	<path class="st1" d="M42.9,4.9c0-0.2-0.1-0.3-0.1-0.5c0.1-0.1,0.4-0.3,0.6-0.3h0v0c0,0.2,0,0.4,0,0.6c0,0,0,0,0,0.1
		C43.2,4.8,43,4.9,42.9,4.9z"/>
	<path class="st1" d="M57.9,4.4c0,0.2-0.1,0.3-0.1,0.5c-0.2,0-0.3-0.1-0.5-0.1c0-0.1,0-0.2,0-0.3c0-0.1,0-0.2,0-0.3
		C57.4,4.1,57.7,4.3,57.9,4.4z"/>
	<path class="st1" d="M65.3,4.9c0-0.2-0.1-0.3-0.1-0.5c0.1-0.1,0.5-0.3,0.6-0.3c0,0.1,0,0.5,0,0.7c-0.1,0-0.2,0.1-0.2,0.1
		C65.4,4.9,65.3,4.9,65.3,4.9z"/>
	<path class="st1" d="M68.5,4.8c0-0.1,0-0.5,0-0.7c0.1,0,0.2,0.1,0.3,0.1c0.1,0,0.2,0.1,0.3,0.2c0,0.1,0,0.2,0,0.2
		c0,0.1,0,0.2-0.1,0.2C68.8,4.9,68.6,4.8,68.5,4.8z"/>
	<path class="st1" d="M76.9,4.1c0,0.2,0,0.6,0,0.7c-0.1,0.1-0.3,0.1-0.5,0.1c0-0.2-0.1-0.3-0.1-0.5C76.4,4.3,76.8,4.2,76.9,4.1z"/>
	<path class="st1" d="M46.1,4.8c0-0.1,0-0.5,0-0.7c0.1,0,0.5,0.2,0.6,0.3c0,0.2-0.1,0.3-0.1,0.5C46.4,4.9,46.2,4.8,46.1,4.8z"/>
	<path class="st1" d="M54.1,4.9c0-0.2-0.1-0.3-0.1-0.5c0.1-0.1,0.4-0.3,0.6-0.3c0,0.1,0,0.5,0,0.7c-0.1,0.1-0.2,0.1-0.2,0.1
		C54.2,4.9,54.1,4.9,54.1,4.9z"/>
	<path class="st1" d="M35.5,4.4c0,0.2-0.1,0.3-0.1,0.5c-0.1,0-0.3-0.1-0.5-0.1c0-0.1,0-0.2,0-0.3c0-0.1,0-0.2,0-0.3
		C35,4.1,35.3,4.3,35.5,4.4z"/>
	<path class="st1" d="M36.8,1.4c0.1,0.1,0.2,0.2,0.4,0.3C37.1,1.8,37,2,36.8,2.1c-0.2-0.1-0.4-0.2-0.6-0.3
		C36.3,1.7,36.6,1.5,36.8,1.4z"/>
	<path class="st1" d="M41.4,2.1C41.3,2,41.1,1.8,41,1.7c0-0.1,0.1-0.1,0.1-0.1c0,0,0.1-0.1,0.1-0.1c0,0,0.1-0.1,0.1-0.1
		c0,0,0,0,0.1,0c0.2,0.1,0.3,0.2,0.5,0.3C41.9,1.8,41.6,2,41.4,2.1z"/>
	<path class="st1" d="M48,2.1c-0.2-0.1-0.4-0.2-0.6-0.4c0.2-0.1,0.4-0.2,0.6-0.4c0.1,0,0.1,0.1,0.2,0.2c0.1,0,0.1,0.1,0.2,0.2
		C48.3,1.8,48.2,1.9,48,2.1z"/>
	<path class="st1" d="M52.2,1.7C52.2,1.7,52.2,1.7,52.2,1.7c0.1-0.1,0.2-0.3,0.4-0.4c0.1,0,0.4,0.2,0.6,0.3
		c-0.1,0.1-0.4,0.3-0.6,0.3c0,0,0,0-0.1,0C52.4,1.9,52.3,1.8,52.2,1.7z"/>
	<path class="st1" d="M59.2,1.4c0.1,0.1,0.2,0.2,0.3,0.3c0,0,0,0,0.1,0.1c-0.1,0.1-0.2,0.2-0.4,0.3c-0.1,0-0.5-0.2-0.6-0.3
		C58.8,1.6,59,1.5,59.2,1.4z"/>
	<path class="st1" d="M64.4,1.7c-0.1,0.1-0.4,0.3-0.6,0.3c0,0,0,0-0.1-0.1c-0.1-0.1-0.2-0.2-0.3-0.3c0,0,0,0,0,0
		c0.1-0.1,0.2-0.2,0.3-0.3C63.9,1.4,64.2,1.6,64.4,1.7z"/>
	<path class="st1" d="M69.9,1.7c0.2-0.1,0.4-0.2,0.6-0.3c0.1,0,0.1,0.1,0.2,0.2c0.1,0,0.1,0.1,0.2,0.2c-0.1,0.1-0.2,0.2-0.4,0.3
		C70.3,2,70,1.8,69.9,1.7z"/>
	<path class="st1" d="M75.6,1.7c-0.2,0.1-0.3,0.2-0.5,0.3c0,0,0,0-0.1,0c-0.1-0.1-0.2-0.2-0.4-0.3c0-0.1,0.1-0.1,0.2-0.2
		c0.1-0.1,0.1-0.1,0.2-0.2c0.1,0,0.2,0.1,0.3,0.2C75.4,1.6,75.5,1.7,75.6,1.7z"/>
	<path class="st1" d="M95.7,47.1c0.1,0,0.3-0.1,0.5-0.1c0.1,0.1,0.1,0.4,0.1,0.5c-0.2,0.1-0.4,0.2-0.6,0.3c0,0,0,0,0,0
		c0-0.2,0-0.4,0-0.5C95.6,47.2,95.6,47.1,95.7,47.1z"/>
	<path class="st1" d="M95.7,34.9c0-0.2,0-0.5,0-0.7c0.1-0.1,0.3-0.1,0.5-0.1c0,0,0,0,0,0c0,0.1,0.1,0.3,0.1,0.5
		C96.2,34.6,95.9,34.8,95.7,34.9z"/>
	<path class="st1" d="M95.7,9c0-0.2,0-0.5,0-0.7c0.1-0.1,0.3-0.1,0.5-0.1c0,0,0,0,0,0c0,0.1,0.1,0.3,0.1,0.5
		C96.2,8.8,95.9,8.9,95.7,9z"/>
	<path class="st1" d="M82.2,2.3c0-0.1,0-0.4,0.1-0.5c0.2,0,0.3,0.1,0.5,0.1c0,0.1,0,0.5,0,0.7c0,0,0,0,0,0
		C82.5,2.5,82.3,2.4,82.2,2.3z"/>
	<path class="st1" d="M85.4,1.9c0.2,0,0.3-0.1,0.5-0.1c0,0,0,0,0,0.1C86,2,86,2.1,86,2.2c-0.1,0.1-0.4,0.3-0.6,0.3h0v0
		c0-0.2,0-0.3,0-0.5C85.4,2,85.4,2,85.4,1.9z"/>
	<path class="st1" d="M93.9,1.9c0,0.1,0,0.5,0,0.7c-0.1,0-0.5-0.2-0.6-0.3c0-0.1,0.1-0.4,0.1-0.5c0,0,0,0,0,0
		C93.6,1.8,93.8,1.8,93.9,1.9z"/>
	<path class="st1" d="M96.2,1.7c0,0.2,0.1,0.3,0.1,0.5c0,0-0.1,0.1-0.1,0.1c-0.2,0.1-0.3,0.2-0.5,0.2c0-0.1,0-0.5,0-0.7
		C95.8,1.8,96,1.8,96.2,1.7z"/>
	<path class="st1" d="M95.7,22c0-0.2,0-0.5,0-0.7c0.2,0,0.3-0.1,0.5-0.1c0,0,0,0,0,0c0,0.1,0.1,0.3,0.1,0.4c0,0,0,0,0,0.1
		C96.1,21.7,95.9,21.8,95.7,22z"/>
	<path class="st1" d="M95.7,40.7c0.2,0,0.3-0.1,0.5-0.1c0.1,0.1,0.1,0.2,0.1,0.2s0,0.2,0,0.2c-0.1,0.1-0.4,0.3-0.6,0.3
		C95.6,41.2,95.6,40.9,95.7,40.7z"/>
	<path class="st1" d="M95.7,14.8C95.7,14.8,95.7,14.8,95.7,14.8c0.2-0.1,0.3-0.1,0.5-0.2c0.1,0.1,0.1,0.2,0.1,0.2s0,0.2,0,0.2
		c-0.1,0.1-0.4,0.3-0.6,0.3h0v0C95.7,15.3,95.7,15.1,95.7,14.8C95.6,14.9,95.7,14.9,95.7,14.8z"/>
	<path class="st1" d="M96.3,28.1c-0.1,0.1-0.5,0.3-0.6,0.3c0-0.1,0-0.5,0-0.7c0.1-0.1,0.3-0.1,0.5-0.1c0.1,0.1,0,0.2,0.1,0.3
		C96.2,27.9,96.3,28,96.3,28.1z"/>
	<path class="st1" d="M82.7,0.9c0,0.2,0,0.4,0,0.7c-0.2,0.1-0.3,0.1-0.5,0.2c0,0,0,0,0-0.1c0-0.1-0.1-0.3-0.1-0.4
		C82.2,1.1,82.5,0.9,82.7,0.9z"/>
	<path class="st1" d="M85.5,0.9c0.1,0,0.5,0.2,0.6,0.3c0,0.1-0.1,0.4-0.1,0.5c-0.2,0-0.3-0.1-0.5-0.1C85.4,1.4,85.4,1,85.5,0.9z"/>
	<path class="st1" d="M93.9,1.5C93.9,1.6,93.9,1.6,93.9,1.5c-0.2,0.1-0.3,0.1-0.5,0.2c-0.1-0.1,0-0.2-0.1-0.3c0-0.1,0-0.2,0-0.2
		c0.1-0.1,0.2-0.1,0.3-0.2c0.1,0,0.2-0.1,0.3-0.1C94,1,94,1.4,93.9,1.5z"/>
	<path class="st1" d="M95.7,0.9c0.2,0.1,0.4,0.2,0.6,0.3c0,0.2-0.1,0.3-0.1,0.5c-0.1,0-0.2,0-0.2-0.1s-0.2,0-0.2-0.1
		C95.6,1.4,95.6,1.1,95.7,0.9z"/>
	<path class="st1" d="M95.7,27.4c0-0.1,0-0.5,0-0.7c0.1,0,0.5,0.2,0.6,0.3c0,0.2-0.1,0.3-0.1,0.5c-0.1,0-0.2,0-0.3-0.1
		C95.8,27.4,95.7,27.4,95.7,27.4z"/>
	<path class="st1" d="M95.7,33.2c0.2,0.1,0.4,0.2,0.6,0.3c0,0.1,0,0.4-0.1,0.5c-0.1,0-0.2,0-0.2-0.1s-0.2,0-0.2-0.1
		C95.6,33.7,95.6,33.3,95.7,33.2z"/>
	<path class="st1" d="M95.7,20.9c0-0.1,0-0.5,0-0.7c0.1,0,0.5,0.2,0.6,0.3c0,0.2-0.1,0.3-0.1,0.5c-0.1,0-0.2,0-0.3-0.1
		C95.8,21,95.7,20.9,95.7,20.9z"/>
	<path class="st1" d="M95.7,8c0-0.1,0-0.5,0-0.7c0.1,0,0.5,0.2,0.6,0.3c0,0.1-0.1,0.4-0.1,0.5C96,8.1,95.8,8.1,95.7,8z"/>
	<path class="st1" d="M95.7,14.5c0-0.2,0-0.5,0-0.7c0.1,0,0.5,0.2,0.6,0.3c0,0.1-0.1,0.4-0.1,0.5C96,14.6,95.8,14.5,95.7,14.5z"/>
	<path class="st1" d="M95.7,46.1c0.2,0.1,0.5,0.2,0.6,0.3c0,0.2-0.1,0.3-0.1,0.5c-0.1,0-0.4-0.1-0.5-0.1
		C95.7,46.6,95.7,46.2,95.7,46.1C95.7,46.1,95.7,46.1,95.7,46.1z"/>
	<path class="st1" d="M96.1,40.4c-0.2,0-0.3-0.1-0.5-0.1c0-0.1,0-0.5,0-0.7c0,0,0,0,0,0c0.2,0.1,0.4,0.2,0.5,0.3
		C96.2,40.1,96.2,40.3,96.1,40.4z"/>
	<path class="st1" d="M97,24.3c0.2-0.1,0.4-0.2,0.6-0.4c0.1,0.1,0.3,0.2,0.4,0.4c-0.1,0.1-0.2,0.2-0.4,0.4
		C97.4,24.6,97.2,24.4,97,24.3z"/>
	<path class="st1" d="M97.6,31.1c-0.2-0.1-0.4-0.2-0.6-0.4c0.2-0.1,0.4-0.2,0.6-0.4c0.1,0.1,0.3,0.2,0.4,0.4
		C97.9,30.9,97.8,31,97.6,31.1z"/>
	<path class="st1" d="M81.4,5c-0.2,0.1-0.4,0.2-0.6,0.4c-0.1-0.1-0.3-0.2-0.4-0.3c0.1-0.1,0.2-0.2,0.4-0.4C80.9,4.6,81.1,4.8,81.4,5
		z"/>
	<path class="st1" d="M86.8,5c0.2-0.1,0.4-0.2,0.6-0.4c0.1,0.1,0.3,0.2,0.4,0.4c-0.1,0.1-0.2,0.2-0.4,0.3c-0.1,0-0.1-0.1-0.2-0.1
		c-0.1,0-0.1-0.1-0.2-0.1C87,5,86.9,5,86.8,5z"/>
	<path class="st1" d="M91.6,4.9c0.1-0.1,0.2-0.2,0.4-0.4c0.2,0.1,0.4,0.2,0.6,0.4c-0.2,0.1-0.4,0.2-0.6,0.4
		C91.9,5.2,91.8,5.1,91.6,4.9z"/>
	<path class="st1" d="M97.6,5.3C97.4,5.2,97.2,5.1,97,5c0.1-0.1,0.4-0.3,0.6-0.4c0,0,0,0,0,0c0.1,0.1,0.2,0.2,0.3,0.3
		C97.9,5,97.8,5.2,97.6,5.3z"/>
	<path class="st1" d="M98,37.3c-0.1,0.1-0.2,0.2-0.4,0.3c0,0,0,0,0,0c-0.2-0.1-0.4-0.2-0.5-0.3c0.1-0.1,0.4-0.2,0.6-0.4
		C97.7,37,97.8,37.1,98,37.3z"/>
	<path class="st1" d="M98,43.7c-0.1,0.1-0.3,0.2-0.4,0.4c-0.1,0-0.2-0.1-0.3-0.2c-0.1,0-0.2-0.1-0.3-0.2c0.1-0.1,0.4-0.3,0.6-0.4
		C97.8,43.5,97.9,43.6,98,43.7z"/>
	<path class="st1" d="M97.6,11.8C97.6,11.8,97.6,11.7,97.6,11.8c-0.2-0.1-0.4-0.2-0.6-0.3c0.1-0.1,0.4-0.3,0.6-0.4
		c0.1,0,0.2,0.1,0.4,0.3C97.9,11.5,97.8,11.6,97.6,11.8z"/>
	<path class="st1" d="M97.6,18.2C97.6,18.2,97.6,18.2,97.6,18.2c-0.2-0.1-0.4-0.2-0.6-0.3c0.2-0.1,0.4-0.2,0.6-0.4
		c0.1,0,0.1,0.1,0.2,0.2c0.1,0,0.1,0.1,0.2,0.2C97.9,18,97.8,18.1,97.6,18.2z"/>
	<path class="st1" d="M97.9,31.3c0-0.2,0.1-0.3,0.1-0.5c0.2,0,0.3,0.1,0.5,0.1c0,0.1,0,0.2,0,0.3c0,0.1,0,0.2,0,0.3c0,0-0.1,0-0.1,0
		C98.3,31.5,98.1,31.4,97.9,31.3z"/>
	<path class="st1" d="M98.5,18c0,0.1,0,0.6,0,0.7c-0.1,0-0.5-0.2-0.6-0.3c0,0,0,0,0,0c0-0.1,0.1-0.3,0.1-0.4c0.1,0,0.2,0,0.2,0
		C98.4,18,98.5,18,98.5,18z"/>
	<path class="st1" d="M80.5,5.5c-0.1,0.1-0.4,0.3-0.6,0.3c0-0.1,0-0.5,0-0.7c0.1,0,0.1,0,0.2-0.1c0.1,0,0.2,0,0.2-0.1
		C80.4,5.1,80.4,5.3,80.5,5.5z"/>
	<path class="st1" d="M88.3,5.8c-0.2-0.1-0.5-0.2-0.6-0.3c0,0,0,0,0-0.1c0-0.1,0.1-0.3,0.1-0.4c0.2,0,0.3,0.1,0.5,0.1
		c0,0.1,0,0.2,0,0.2c0,0.1,0,0.1,0,0.2C88.3,5.6,88.3,5.7,88.3,5.8z"/>
	<path class="st1" d="M97.9,5.5c0-0.1,0-0.2,0.1-0.4c0,0,0-0.1,0-0.1c0.2,0,0.3,0.1,0.5,0.1c0,0.1,0,0.2,0,0.3c0,0.1,0,0.2,0,0.3
		c-0.1,0-0.2-0.1-0.3-0.1C98.1,5.6,98,5.6,97.9,5.5z"/>
	<path class="st1" d="M98.5,38.1c-0.2-0.1-0.5-0.2-0.6-0.3c0-0.2,0.1-0.3,0.1-0.5c0.2,0,0.3,0.1,0.5,0.1
		C98.6,37.5,98.6,37.9,98.5,38.1z"/>
	<path class="st1" d="M91.1,5.8c0-0.1,0-0.5,0-0.7c0.1,0,0.1,0,0.2-0.1c0.1,0,0.2,0,0.2-0.1c0.1,0.2,0.1,0.3,0.1,0.5
		C91.6,5.6,91.2,5.8,91.1,5.8z"/>
	<path class="st1" d="M97.9,44.2c0-0.2,0.1-0.3,0.1-0.5c0.2,0,0.3,0.1,0.5,0.1c0,0.1,0,0.5,0,0.7C98.4,44.5,98.1,44.3,97.9,44.2z"/>
	<path class="st1" d="M97.9,11.9c0-0.2,0.1-0.3,0.1-0.5c0.1,0,0.4,0.1,0.5,0.1c0,0.1,0,0.5,0,0.7C98.4,12.2,98,12,97.9,11.9z"/>
	<path class="st1" d="M98.5,24.5c0,0.2,0,0.5,0,0.7c-0.1,0-0.5-0.2-0.6-0.3c0-0.2,0.1-0.3,0.1-0.5C98.2,24.4,98.4,24.4,98.5,24.5z"
		/>
	<path class="st1" d="M87.8,4.9c0-0.2-0.1-0.3-0.1-0.5c0.1-0.1,0.4-0.3,0.6-0.3h0v0c0,0.2,0,0.4,0,0.6c0,0,0,0,0,0.1
		C88.2,4.8,88,4.9,87.8,4.9z"/>
	<path class="st1" d="M98,37.2c0-0.2-0.1-0.3-0.1-0.5c0.2-0.1,0.3-0.2,0.5-0.3c0,0,0,0,0.1,0c0,0.2,0,0.4,0,0.7
		C98.4,37.1,98.2,37.2,98,37.2z"/>
	<path class="st1" d="M98.5,23.5c0,0.1,0,0.5,0,0.7c-0.1,0.1-0.3,0.1-0.5,0.1c0-0.2-0.1-0.3-0.1-0.5C98,23.7,98.4,23.5,98.5,23.5z"
		/>
	<path class="st1" d="M97.9,43.2c0.2-0.1,0.5-0.3,0.6-0.3c0,0.2,0,0.4,0,0.7c-0.2,0.1-0.3,0.1-0.5,0.2c0-0.1,0-0.2-0.1-0.3
		C98,43.3,98,43.3,97.9,43.2z"/>
	<path class="st1" d="M91.1,4.8c0-0.1,0-0.5,0-0.7c0.1,0,0.5,0.2,0.6,0.3c0,0.2-0.1,0.3-0.1,0.5C91.4,4.9,91.2,4.8,91.1,4.8z"/>
	<path class="st1" d="M98.1,4.9C98,4.8,98,4.6,98,4.4c0.1-0.1,0.4-0.3,0.6-0.3c0,0.1,0,0.5,0,0.7c-0.1,0.1-0.2,0.1-0.2,0.1
		C98.2,4.9,98.1,4.9,98.1,4.9z"/>
	<path class="st1" d="M97.9,30.3c0.2-0.1,0.5-0.3,0.6-0.3c0,0.1,0,0.5,0,0.7c-0.1,0.1-0.3,0.1-0.5,0.2C98,30.6,98,30.4,97.9,30.3z"
		/>
	<path class="st1" d="M98.5,17.7c-0.1,0.1-0.3,0.1-0.5,0.1c0-0.2-0.1-0.3-0.1-0.5c0.1-0.1,0.5-0.3,0.6-0.3
		C98.6,17.1,98.6,17.5,98.5,17.7z"/>
	<path class="st1" d="M98,11.4c0-0.2-0.1-0.3-0.1-0.5c0.1-0.1,0.4-0.3,0.6-0.3c0,0.1,0,0.1,0,0.2c0,0.1,0,0.2,0,0.2
		c0,0.1,0,0.1,0,0.2C98.4,11.3,98.2,11.3,98,11.4z"/>
	<path class="st1" d="M80.5,4.4c0,0.2-0.1,0.3-0.1,0.5c-0.1,0-0.3-0.1-0.5-0.1c0-0.1,0-0.2,0-0.3c0-0.1,0-0.2,0-0.3
		C80,4.1,80.3,4.3,80.5,4.4z"/>
	<path class="st1" d="M97.2,8.2c-0.2,0.1-0.4,0.2-0.6,0.3c-0.1,0-0.3-0.2-0.4-0.3c0,0,0,0,0-0.1c0.1-0.1,0.2-0.2,0.3-0.3
		c0.1,0,0.2,0.1,0.3,0.2C97,8,97.1,8.1,97.2,8.2z"/>
	<path class="st1" d="M96.6,15c-0.1-0.1-0.2-0.2-0.4-0.3c0-0.1,0.1-0.1,0.2-0.2c0.1-0.1,0.1-0.1,0.2-0.2c0.1,0,0.2,0.1,0.3,0.2
		c0.1,0,0.2,0.1,0.3,0.2C97.1,14.7,96.8,14.9,96.6,15z"/>
	<path class="st1" d="M96.6,40.1c0.2,0.1,0.4,0.2,0.6,0.3c-0.1,0.1-0.4,0.3-0.6,0.4c-0.1-0.1-0.2-0.2-0.4-0.3
		C96.3,40.3,96.5,40.2,96.6,40.1z"/>
	<path class="st1" d="M81.8,1.4c0.1,0.1,0.2,0.2,0.4,0.3C82.1,1.8,82,2,81.8,2.1c-0.2-0.1-0.4-0.2-0.6-0.3
		C81.3,1.7,81.6,1.5,81.8,1.4z"/>
	<path class="st1" d="M86.4,2.1C86.3,2,86.1,1.8,86,1.7c0-0.1,0.1-0.1,0.1-0.1c0,0,0.1-0.1,0.1-0.1c0,0,0.1-0.1,0.1-0.1
		c0,0,0,0,0.1,0c0.2,0.1,0.3,0.2,0.5,0.3C86.9,1.8,86.6,2,86.4,2.1z"/>
	<path class="st1" d="M93,2.1c-0.2-0.1-0.4-0.2-0.6-0.4c0.2-0.1,0.4-0.2,0.6-0.4c0.1,0,0.1,0.1,0.2,0.2c0.1,0,0.1,0.1,0.2,0.2
		C93.3,1.8,93.1,1.9,93,2.1z"/>
	<path class="st1" d="M97.2,27.6c-0.2,0.1-0.4,0.2-0.6,0.3c-0.1-0.1-0.3-0.2-0.4-0.4c0.1-0.1,0.2-0.2,0.4-0.3
		C96.7,27.3,97,27.5,97.2,27.6z"/>
	<path class="st1" d="M96.6,21.5c-0.1-0.1-0.3-0.2-0.4-0.3c0,0,0,0,0,0c0.1-0.1,0.2-0.2,0.3-0.3c0.1,0,0.4,0.2,0.6,0.3
		C97,21.2,96.8,21.3,96.6,21.5z"/>
	<path class="st1" d="M96.2,1.7C96.2,1.7,96.2,1.7,96.2,1.7c0.1-0.1,0.2-0.3,0.4-0.4c0.1,0,0.4,0.2,0.6,0.3
		c-0.1,0.1-0.4,0.3-0.6,0.3c0,0,0,0-0.1,0C96.4,1.9,96.3,1.8,96.2,1.7z"/>
	<path class="st1" d="M96.6,47.3c-0.1-0.1-0.3-0.2-0.4-0.4c0.1-0.1,0.2-0.2,0.4-0.3c0.1,0.1,0.5,0.3,0.6,0.4
		C97,47.1,96.8,47.2,96.6,47.3z"/>
	<path class="st1" d="M96.6,34.4C96.6,34.3,96.5,34.3,96.6,34.4c-0.2-0.1-0.3-0.2-0.4-0.3c0,0,0,0,0,0c0.1-0.1,0.2-0.2,0.3-0.3
		c0.1,0,0.4,0.2,0.6,0.3C97.1,34.1,96.7,34.3,96.6,34.4z"/>
	<path class="st1" d="M95.7,92.5c0.1,0,0.3-0.1,0.5-0.1c0.1,0.1,0.1,0.4,0.1,0.5c-0.2,0.1-0.4,0.2-0.6,0.3c0,0,0,0,0,0
		c0-0.2,0-0.4,0-0.5C95.6,92.5,95.6,92.5,95.7,92.5z"/>
	<path class="st1" d="M95.7,80.3c0-0.2,0-0.5,0-0.7c0.1-0.1,0.3-0.1,0.5-0.1c0,0,0,0,0,0c0,0.1,0.1,0.3,0.1,0.5
		C96.2,80,95.9,80.2,95.7,80.3z"/>
	<path class="st1" d="M95.7,54.4c0-0.2,0-0.5,0-0.7c0.1-0.1,0.3-0.1,0.5-0.1c0,0,0,0,0,0c0,0.1,0.1,0.3,0.1,0.5
		C96.2,54.2,95.9,54.3,95.7,54.4z"/>
	<path class="st1" d="M95.7,67.4c0-0.2,0-0.5,0-0.7c0.2,0,0.3-0.1,0.5-0.1c0,0,0,0,0,0c0,0.1,0.1,0.3,0.1,0.4c0,0,0,0,0,0.1
		C96.1,67.1,95.9,67.2,95.7,67.4z"/>
	<path class="st1" d="M95.7,86c0.2,0,0.3-0.1,0.5-0.1c0.1,0.1,0.1,0.2,0.1,0.2c0,0.1,0,0.2,0,0.2c-0.1,0.1-0.4,0.3-0.6,0.3
		C95.6,86.6,95.6,86.3,95.7,86z"/>
	<path class="st1" d="M95.7,60.2C95.7,60.2,95.7,60.2,95.7,60.2c0.2-0.1,0.3-0.1,0.5-0.2c0.1,0.1,0.1,0.2,0.1,0.2c0,0.1,0,0.2,0,0.2
		c-0.1,0.1-0.4,0.3-0.6,0.3h0v0C95.7,60.7,95.7,60.5,95.7,60.2C95.6,60.3,95.7,60.2,95.7,60.2z"/>
	<path class="st1" d="M96.3,73.5c-0.1,0.1-0.5,0.3-0.6,0.3c0-0.1,0-0.5,0-0.7c0.1-0.1,0.3-0.1,0.5-0.1c0.1,0.1,0,0.2,0.1,0.3
		C96.2,73.3,96.3,73.4,96.3,73.5z"/>
	<path class="st1" d="M95.7,72.8c0-0.1,0-0.5,0-0.7c0.1,0,0.5,0.2,0.6,0.3c0,0.2-0.1,0.3-0.1,0.5c-0.1,0-0.2,0-0.3-0.1
		C95.8,72.8,95.7,72.8,95.7,72.8z"/>
	<path class="st1" d="M95.7,78.5c0.2,0.1,0.4,0.2,0.6,0.3c0,0.1,0,0.4-0.1,0.5c-0.1,0-0.2,0-0.2-0.1c-0.1,0-0.2,0-0.2-0.1
		C95.6,79.1,95.6,78.7,95.7,78.5z"/>
	<path class="st1" d="M95.7,66.3c0-0.1,0-0.5,0-0.7c0.1,0,0.5,0.2,0.6,0.3c0,0.2-0.1,0.3-0.1,0.5c-0.1,0-0.2,0-0.3-0.1
		C95.8,66.4,95.7,66.3,95.7,66.3z"/>
	<path class="st1" d="M95.7,53.4c0-0.1,0-0.5,0-0.7c0.1,0,0.5,0.2,0.6,0.3c0,0.1-0.1,0.4-0.1,0.5C96,53.5,95.8,53.5,95.7,53.4z"/>
	<path class="st1" d="M95.7,59.8c0-0.2,0-0.5,0-0.7c0.1,0,0.5,0.2,0.6,0.3c0,0.1-0.1,0.4-0.1,0.5C96,60,95.8,59.9,95.7,59.8z"/>
	<path class="st1" d="M95.7,91.5c0.2,0.1,0.5,0.2,0.6,0.3c0,0.2-0.1,0.3-0.1,0.5c-0.1,0-0.4-0.1-0.5-0.1
		C95.7,92,95.7,91.6,95.7,91.5L95.7,91.5z"/>
	<path class="st1" d="M96.1,85.8c-0.2,0-0.3-0.1-0.5-0.1c0-0.1,0-0.5,0-0.7c0,0,0,0,0,0c0.2,0.1,0.4,0.2,0.5,0.3
		C96.2,85.5,96.2,85.7,96.1,85.8z"/>
	<path class="st1" d="M97,69.7c0.2-0.1,0.4-0.2,0.6-0.4c0.1,0.1,0.3,0.2,0.4,0.4c-0.1,0.1-0.2,0.2-0.4,0.4
		C97.4,70,97.2,69.8,97,69.7z"/>
	<path class="st1" d="M97.6,76.5c-0.2-0.1-0.4-0.2-0.6-0.4c0.2-0.1,0.4-0.2,0.6-0.4c0.1,0.1,0.3,0.2,0.4,0.4
		C97.9,76.3,97.8,76.4,97.6,76.5z"/>
	<path class="st1" d="M97.6,50.7c-0.2-0.1-0.4-0.2-0.6-0.3c0.1-0.1,0.4-0.3,0.6-0.4c0,0,0,0,0,0c0.1,0.1,0.2,0.2,0.3,0.3
		C97.9,50.4,97.8,50.5,97.6,50.7z"/>
	<path class="st1" d="M98,82.6c-0.1,0.1-0.2,0.2-0.4,0.3c0,0,0,0,0,0c-0.2-0.1-0.4-0.2-0.5-0.3c0.1-0.1,0.4-0.2,0.6-0.4
		C97.7,82.3,97.8,82.4,98,82.6z"/>
	<path class="st1" d="M98,89.1c-0.1,0.1-0.3,0.2-0.4,0.4c-0.1,0-0.2-0.1-0.3-0.2c-0.1,0-0.2-0.1-0.3-0.2c0.1-0.1,0.4-0.3,0.6-0.4
		C97.8,88.9,97.9,89,98,89.1z"/>
	<path class="st1" d="M97.6,57.1C97.6,57.1,97.6,57.1,97.6,57.1c-0.2-0.1-0.4-0.2-0.6-0.3c0.1-0.1,0.4-0.3,0.6-0.4
		c0.1,0,0.2,0.1,0.4,0.3C97.9,56.9,97.8,57,97.6,57.1z"/>
	<path class="st1" d="M97.6,63.6C97.6,63.6,97.6,63.6,97.6,63.6c-0.2-0.1-0.4-0.2-0.6-0.3c0.2-0.1,0.4-0.2,0.6-0.4
		c0.1,0,0.1,0.1,0.2,0.2c0.1,0,0.1,0.1,0.2,0.2C97.9,63.4,97.8,63.5,97.6,63.6z"/>
	<path class="st1" d="M97.9,76.7c0-0.2,0.1-0.3,0.1-0.5c0.2,0,0.3,0.1,0.5,0.1c0,0.1,0,0.2,0,0.3c0,0.1,0,0.2,0,0.3c0,0-0.1,0-0.1,0
		C98.3,76.9,98.1,76.8,97.9,76.7z"/>
	<path class="st1" d="M98.5,63.4c0,0.1,0,0.6,0,0.7c-0.1,0-0.5-0.2-0.6-0.3c0,0,0,0,0,0c0-0.1,0.1-0.3,0.1-0.4c0.1,0,0.2,0,0.2,0
		C98.4,63.4,98.5,63.4,98.5,63.4z"/>
	<path class="st1" d="M97.9,50.9c0-0.1,0-0.2,0.1-0.4c0,0,0-0.1,0-0.1c0.2,0,0.3,0.1,0.5,0.1c0,0.1,0,0.2,0,0.3c0,0.1,0,0.2,0,0.3
		c-0.1,0-0.2-0.1-0.3-0.1C98.1,51,98,50.9,97.9,50.9z"/>
	<path class="st1" d="M98.5,83.5c-0.2-0.1-0.5-0.2-0.6-0.3c0-0.2,0.1-0.3,0.1-0.5c0.2,0,0.3,0.1,0.5,0.1
		C98.6,82.9,98.6,83.3,98.5,83.5z"/>
	<path class="st1" d="M97.9,89.6c0-0.2,0.1-0.3,0.1-0.5c0.2,0,0.3,0.1,0.5,0.1c0,0.1,0,0.5,0,0.7C98.4,89.9,98.1,89.7,97.9,89.6z"/>
	<path class="st1" d="M97.9,57.3c0-0.2,0.1-0.3,0.1-0.5c0.1,0,0.4,0.1,0.5,0.1c0,0.1,0,0.5,0,0.7C98.4,57.6,98,57.4,97.9,57.3z"/>
	<path class="st1" d="M98.5,69.9c0,0.2,0,0.5,0,0.7c-0.1,0-0.5-0.2-0.6-0.3c0-0.2,0.1-0.3,0.1-0.5C98.2,69.8,98.4,69.8,98.5,69.9z"
		/>
	<path class="st1" d="M98,82.6c0-0.2-0.1-0.3-0.1-0.5c0.2-0.1,0.3-0.2,0.5-0.3c0,0,0,0,0.1,0c0,0.2,0,0.4,0,0.7
		C98.4,82.5,98.2,82.6,98,82.6z"/>
	<path class="st1" d="M98.5,68.9c0,0.1,0,0.5,0,0.7c-0.1,0.1-0.3,0.1-0.5,0.1c0-0.2-0.1-0.3-0.1-0.5C98,69.1,98.4,68.9,98.5,68.9z"
		/>
	<path class="st1" d="M97.9,88.6c0.2-0.1,0.5-0.3,0.6-0.3c0,0.2,0,0.4,0,0.7c-0.2,0.1-0.3,0.1-0.5,0.2c0-0.1,0-0.2-0.1-0.3
		C98,88.7,98,88.6,97.9,88.6z"/>
	<path class="st1" d="M98.1,50.3c0-0.2-0.1-0.3-0.1-0.5c0.1-0.1,0.4-0.3,0.6-0.3c0,0.1,0,0.5,0,0.7c-0.1,0.1-0.2,0.1-0.2,0.1
		C98.2,50.3,98.1,50.3,98.1,50.3z"/>
	<path class="st1" d="M97.9,75.6c0.2-0.1,0.5-0.3,0.6-0.3c0,0.1,0,0.5,0,0.7c-0.1,0.1-0.3,0.1-0.5,0.2C98,76,98,75.8,97.9,75.6z"/>
	<path class="st1" d="M98.5,63.1c-0.1,0.1-0.3,0.1-0.5,0.1c0-0.2-0.1-0.3-0.1-0.5c0.1-0.1,0.5-0.3,0.6-0.3
		C98.6,62.5,98.6,62.9,98.5,63.1z"/>
	<path class="st1" d="M98,56.8c0-0.2-0.1-0.3-0.1-0.5c0.1-0.1,0.4-0.3,0.6-0.3c0,0.1,0,0.1,0,0.2c0,0.1,0,0.2,0,0.2s0,0.1,0,0.2
		C98.4,56.7,98.2,56.7,98,56.8z"/>
	<path class="st1" d="M97.2,53.6c-0.2,0.1-0.4,0.2-0.6,0.3c-0.1,0-0.3-0.2-0.4-0.3c0,0,0,0,0-0.1c0.1-0.1,0.2-0.2,0.3-0.3
		c0.1,0,0.2,0.1,0.3,0.2C97,53.4,97.1,53.5,97.2,53.6z"/>
	<path class="st1" d="M96.6,60.4c-0.1-0.1-0.2-0.2-0.4-0.3c0-0.1,0.1-0.1,0.2-0.2c0.1-0.1,0.1-0.1,0.2-0.2c0.1,0,0.2,0.1,0.3,0.2
		c0.1,0,0.2,0.1,0.3,0.2C97.1,60.1,96.8,60.3,96.6,60.4z"/>
	<path class="st1" d="M96.6,85.5c0.2,0.1,0.4,0.2,0.6,0.3c-0.1,0.1-0.4,0.3-0.6,0.4c-0.1-0.1-0.2-0.2-0.4-0.3
		C96.3,85.7,96.5,85.6,96.6,85.5z"/>
	<path class="st1" d="M97.2,73c-0.2,0.1-0.4,0.2-0.6,0.3c-0.1-0.1-0.3-0.2-0.4-0.4c0.1-0.1,0.2-0.2,0.4-0.3
		C96.7,72.7,97,72.9,97.2,73z"/>
	<path class="st1" d="M96.6,66.8c-0.1-0.1-0.3-0.2-0.4-0.3c0,0,0,0,0,0c0.1-0.1,0.2-0.2,0.3-0.3c0.1,0,0.4,0.2,0.6,0.3
		C97,66.6,96.8,66.7,96.6,66.8z"/>
	<path class="st1" d="M96.6,92.7c-0.1-0.1-0.3-0.2-0.4-0.4c0.1-0.1,0.2-0.2,0.4-0.3c0.1,0.1,0.5,0.3,0.6,0.4
		C97,92.4,96.8,92.6,96.6,92.7z"/>
	<path class="st1" d="M96.6,79.7C96.6,79.7,96.5,79.7,96.6,79.7c-0.2-0.1-0.3-0.2-0.4-0.3c0,0,0,0,0,0c0.1-0.1,0.2-0.2,0.3-0.3
		c0.1,0,0.4,0.2,0.6,0.3C97.1,79.5,96.7,79.7,96.6,79.7z"/>
	<g>
		<path class="st1" d="M4.1,99c0,0.1,0,0.5,0,0.7c-0.1,0-0.5-0.2-0.6-0.3c0-0.2,0.1-0.3,0.1-0.5c0,0,0.1,0,0.1,0
			C3.8,98.9,3.9,98.9,4.1,99z"/>
		<path class="st1" d="M6.8,99.6c0-0.2,0-0.5,0-0.7c0.1-0.1,0.3-0.1,0.5-0.1c0,0,0,0,0,0c0,0.1,0.1,0.3,0.1,0.5
			C7.3,99.4,7,99.6,6.8,99.6z"/>
		<path class="st1" d="M14.8,98.8c0.1,0,0.3,0.1,0.5,0.1c0,0.1,0,0.2,0,0.3c0,0.1,0,0.2,0,0.3c-0.1,0-0.5-0.2-0.6-0.3
			C14.7,99.2,14.7,98.9,14.8,98.8z"/>
		<path class="st1" d="M18,99c0.2,0,0.3-0.1,0.5-0.1c0,0.1,0.1,0.3,0.1,0.5c0,0,0,0,0,0c-0.2,0.1-0.3,0.2-0.5,0.3c0,0,0,0,0-0.1
			C18,99.4,18,99.2,18,99C18,99,18,99,18,99z"/>
		<path class="st1" d="M26,98.8c0.2,0,0.3,0.1,0.5,0.1c0,0.1,0,0.2,0,0.2c0,0.1,0,0.1,0,0.2c0,0.1,0,0.1,0,0.2
			c-0.1,0-0.5-0.2-0.6-0.3C25.9,99.2,25.9,99,26,98.8z"/>
		<path class="st1" d="M29.8,99.3c-0.1,0.1-0.5,0.3-0.6,0.3c0-0.1,0-0.5,0-0.7c0.1-0.1,0.3-0.1,0.5-0.1c0.1,0.1,0,0.2,0.1,0.3
			C29.8,99.2,29.8,99.2,29.8,99.3z"/>
		<path class="st1" d="M19.9,95.9c-0.2-0.1-0.4-0.2-0.6-0.3c0.1-0.1,0.2-0.1,0.3-0.2c0.1-0.1,0.2-0.1,0.3-0.2
			c0.1,0.1,0.2,0.2,0.4,0.3C20.3,95.7,20.1,95.8,19.9,95.9z"/>
		<path class="st1" d="M4.1,97.9c0,0.2,0,0.5,0,0.7c-0.2,0.1-0.3,0.1-0.5,0.2c0-0.2-0.1-0.3-0.1-0.5c0,0,0,0,0,0
			C3.7,98.1,3.9,98,4.1,97.9z"/>
		<path class="st1" d="M6.8,98.6c0-0.1,0-0.5,0-0.7c0.1,0,0.5,0.2,0.6,0.3c0,0.1-0.1,0.4-0.1,0.5C7.1,98.7,6.9,98.7,6.8,98.6z"/>
		<path class="st1" d="M14.7,98.3c0.1-0.1,0.5-0.3,0.6-0.3h0v0c0,0.2,0,0.4,0,0.5c0,0,0,0.1,0,0.1c-0.1,0.1-0.3,0.1-0.5,0.1
			c0,0,0,0,0-0.1C14.7,98.5,14.7,98.4,14.7,98.3z"/>
		<path class="st1" d="M18,98c0.1,0,0.5,0.2,0.6,0.3c0,0.1-0.1,0.4-0.1,0.5c-0.2,0-0.3-0.1-0.5-0.1C18,98.5,18,98.1,18,98z"/>
		<path class="st1" d="M26,98.8c0-0.2-0.1-0.3-0.1-0.5c0.1-0.1,0.4-0.3,0.6-0.3c0,0.1,0,0.5,0,0.7C26.3,98.7,26.2,98.7,26,98.8z"/>
		<path class="st1" d="M29.8,98.3c0,0.1-0.1,0.4-0.1,0.5c-0.2,0-0.3-0.1-0.5-0.1c0-0.1,0-0.5,0-0.7c0,0,0,0,0,0
			C29.4,98,29.5,98.1,29.8,98.3C29.7,98.2,29.8,98.2,29.8,98.3z"/>
		<path class="st1" d="M1.7,95.6c0.1-0.1,0.2-0.2,0.4-0.4c0.2,0.1,0.4,0.2,0.6,0.4c-0.2,0.1-0.4,0.2-0.6,0.4
			C2,95.9,1.9,95.7,1.7,95.6z"/>
		<path class="st1" d="M8.7,95.9c-0.2-0.1-0.4-0.2-0.6-0.3c0.1-0.1,0.4-0.3,0.6-0.4c0,0,0,0,0,0c0.1,0.1,0.2,0.2,0.3,0.3
			C9.1,95.7,8.9,95.8,8.7,95.9z"/>
		<path class="st1" d="M12.9,95.6c0.1-0.1,0.2-0.2,0.4-0.3c0.1,0,0.1,0.1,0.2,0.1c0.1,0,0.1,0.1,0.2,0.1c0.1,0,0.1,0.1,0.2,0.1
			c-0.2,0.1-0.3,0.2-0.5,0.3c0,0,0,0-0.1,0C13.2,95.8,13.1,95.7,12.9,95.6z"/>
		<path class="st1" d="M24.1,95.6c0.1-0.1,0.2-0.2,0.4-0.4c0.2,0.1,0.4,0.2,0.6,0.4c-0.2,0.1-0.4,0.2-0.6,0.4
			c-0.1,0-0.1-0.1-0.2-0.2C24.3,95.7,24.2,95.6,24.1,95.6z"/>
		<path class="st1" d="M23.6,96.4c0-0.2,0-0.5,0-0.7c0.1,0,0.2-0.1,0.2-0.1c0.1,0,0.2,0,0.2-0.1c0,0.2,0.1,0.3,0.1,0.5
			C24.1,96.2,23.8,96.3,23.6,96.4z"/>
		<path class="st1" d="M9.1,96.1c0-0.1,0-0.2,0.1-0.4c0,0,0-0.1,0-0.1c0.2,0,0.3,0.1,0.5,0.1c0,0.1,0,0.2,0,0.3c0,0.1,0,0.2,0,0.3
			c-0.1,0-0.2-0.1-0.3-0.1C9.3,96.2,9.2,96.2,9.1,96.1z"/>
		<path class="st1" d="M12.4,96.4c0-0.2,0-0.5,0-0.7c0.1,0,0.2-0.1,0.2-0.1c0.1,0,0.2,0,0.2-0.1c0,0.2,0.1,0.3,0.1,0.5
			C12.9,96.2,12.6,96.3,12.4,96.4z"/>
		<path class="st1" d="M20.3,96.1c0-0.2,0.1-0.3,0.1-0.5c0.1,0,0.3,0.1,0.4,0.1c0,0,0.1,0,0.1,0c0,0.1,0,0.5,0,0.7
			C20.7,96.4,20.4,96.2,20.3,96.1z"/>
		<path class="st1" d="M1.2,96.4c0-0.1,0-0.5,0-0.7c0.1,0,0.1,0,0.2-0.1c0.1,0,0.2,0,0.2-0.1c0.1,0.2,0.1,0.3,0.1,0.5
			C1.7,96.2,1.3,96.4,1.2,96.4z"/>
		<path class="st1" d="M13,95c0,0.2-0.1,0.3-0.1,0.5c-0.2,0-0.3-0.1-0.5-0.1c0-0.1,0-0.2,0-0.3c0-0.1,0-0.2,0-0.3
			C12.5,94.8,12.8,94.9,13,95z"/>
		<path class="st1" d="M20.4,95.5c0-0.2-0.1-0.3-0.1-0.5c0.1-0.1,0.5-0.3,0.6-0.3c0,0.1,0,0.5,0,0.7c-0.1,0-0.2,0.1-0.2,0.1
			C20.5,95.5,20.5,95.5,20.4,95.5z"/>
		<path class="st1" d="M23.6,95.4c0-0.1,0-0.5,0-0.7c0.1,0,0.2,0.1,0.3,0.1c0.1,0,0.2,0.1,0.3,0.2c0,0.1,0,0.2,0,0.2
			c0,0.1,0,0.2-0.1,0.2C24,95.5,23.7,95.4,23.6,95.4z"/>
		<path class="st1" d="M1.2,95.4c0-0.1,0-0.5,0-0.7c0.1,0,0.5,0.2,0.6,0.3c0,0.2-0.1,0.3-0.1,0.5C1.6,95.5,1.4,95.5,1.2,95.4z"/>
		<path class="st1" d="M9.2,95.5c0-0.2-0.1-0.3-0.1-0.5c0.1-0.1,0.4-0.3,0.6-0.3c0,0.1,0,0.5,0,0.7c-0.1,0.1-0.2,0.1-0.2,0.1
			C9.4,95.5,9.3,95.5,9.2,95.5z"/>
		<path class="st1" d="M3.1,98.4c0.1,0.1,0.2,0.2,0.3,0.3c0,0,0,0,0.1,0.1c-0.1,0.1-0.2,0.2-0.4,0.3c-0.1,0-0.5-0.2-0.6-0.3
			C2.8,98.7,3,98.6,3.1,98.4z"/>
		<path class="st1" d="M8.3,98.8c-0.2,0.1-0.4,0.2-0.6,0.3c-0.1,0-0.3-0.2-0.4-0.3c0,0,0,0,0-0.1c0.1-0.1,0.2-0.2,0.3-0.3
			c0.1,0,0.2,0.1,0.3,0.2C8.1,98.7,8.2,98.7,8.3,98.8z"/>
		<path class="st1" d="M14.7,98.8c-0.1,0.1-0.2,0.2-0.4,0.3c-0.1,0-0.1-0.1-0.2-0.1C14.1,99,14,99,14,98.9c-0.1,0-0.1-0.1-0.2-0.1
			c0.1-0.1,0.4-0.3,0.6-0.4C14.5,98.5,14.6,98.7,14.7,98.8z"/>
		<path class="st1" d="M30.1,99.1c-0.1-0.1-0.2-0.2-0.4-0.3c0-0.1,0.1-0.1,0.2-0.2c0.1-0.1,0.1-0.1,0.2-0.2c0.1,0,0.4,0.2,0.6,0.3
			C30.6,98.9,30.3,99.1,30.1,99.1z"/>
		<path class="st1" d="M25.9,98.8c-0.1,0.1-0.2,0.2-0.4,0.3c-0.1,0-0.1-0.1-0.2-0.1c-0.1,0-0.1-0.1-0.2-0.1c-0.1,0-0.1-0.1-0.2-0.1
			c0.1-0.1,0.4-0.3,0.6-0.4C25.7,98.5,25.8,98.7,25.9,98.8z"/>
		<path class="st1" d="M19.5,98.8c-0.2,0.1-0.4,0.2-0.6,0.4c-0.1-0.1-0.2-0.2-0.4-0.3c0.1-0.1,0.2-0.2,0.4-0.4
			c0.1,0,0.2,0.1,0.3,0.2C19.3,98.7,19.4,98.7,19.5,98.8z"/>
	</g>
	<g>
		<path class="st1" d="M37.7,99c0,0.1,0,0.5,0,0.7c0,0,0,0-0.1,0c-0.2-0.1-0.3-0.2-0.5-0.3c0,0,0,0,0,0c0-0.1,0-0.4,0.1-0.5
			C37.4,98.9,37.6,98.9,37.7,99z"/>
		<path class="st1" d="M40.5,99c0.2,0,0.3-0.1,0.5-0.1C41,98.9,41,99,41,99.1c0,0.1,0,0.2,0,0.2c-0.1,0.1-0.4,0.3-0.6,0.3
			C40.5,99.5,40.4,99.2,40.5,99z"/>
		<path class="st1" d="M48.9,99c0,0.1,0,0.5,0,0.7c-0.1,0-0.5-0.2-0.6-0.3c0-0.2,0.1-0.3,0.1-0.5c0,0,0.1,0,0.1,0
			C48.7,98.9,48.8,98.9,48.9,99z"/>
		<path class="st1" d="M51.7,99.6c0-0.2,0-0.5,0-0.7c0.1-0.1,0.3-0.1,0.5-0.1c0,0,0,0,0,0c0,0.1,0.1,0.3,0.1,0.5
			C52.2,99.4,51.9,99.6,51.7,99.6z"/>
		<path class="st1" d="M59.7,98.8c0.1,0,0.3,0.1,0.5,0.1c0,0.1,0,0.2,0,0.3c0,0.1,0,0.2,0,0.3c-0.1,0-0.5-0.2-0.6-0.3
			C59.6,99.2,59.6,98.9,59.7,98.8z"/>
		<path class="st1" d="M62.9,99c0.2,0,0.3-0.1,0.5-0.1c0,0.1,0.1,0.3,0.1,0.5c0,0,0,0,0,0c-0.2,0.1-0.3,0.2-0.5,0.3c0,0,0,0,0-0.1
			C62.9,99.4,62.9,99.2,62.9,99C62.9,99,62.9,99,62.9,99z"/>
		<path class="st1" d="M70.9,98.8c0.2,0,0.3,0.1,0.5,0.1c0,0.1,0,0.2,0,0.2c0,0.1,0,0.1,0,0.2c0,0.1,0,0.1,0,0.2
			c-0.1,0-0.5-0.2-0.6-0.3C70.8,99.2,70.8,99,70.9,98.8z"/>
		<path class="st1" d="M74.7,99.3c-0.1,0.1-0.5,0.3-0.6,0.3c0-0.1,0-0.5,0-0.7c0.1-0.1,0.3-0.1,0.5-0.1c0.1,0.1,0,0.2,0.1,0.3
			C74.6,99.2,74.7,99.2,74.7,99.3z"/>
		<path class="st1" d="M64.8,95.9c-0.2-0.1-0.4-0.2-0.6-0.3c0.1-0.1,0.2-0.1,0.3-0.2c0.1-0.1,0.2-0.1,0.3-0.2
			c0.1,0.1,0.2,0.2,0.4,0.3C65.1,95.7,65,95.8,64.8,95.9z"/>
		<path class="st1" d="M37.3,98.8c0-0.2-0.1-0.3-0.1-0.5c0.1-0.1,0.2-0.1,0.3-0.2c0.1,0,0.2-0.1,0.3-0.1c0,0.1,0,0.5,0,0.7
			c0,0,0,0,0,0C37.6,98.7,37.4,98.7,37.3,98.8z"/>
		<path class="st1" d="M40.5,98.6c0-0.1,0-0.5,0-0.7c0,0,0,0,0,0c0.1,0,0.5,0.2,0.6,0.3c0,0.1,0,0.3-0.1,0.5
			C40.8,98.7,40.6,98.7,40.5,98.6z"/>
		<path class="st1" d="M48.9,97.9c0,0.2,0,0.5,0,0.7c-0.2,0.1-0.3,0.1-0.5,0.2c0-0.2-0.1-0.3-0.1-0.5c0,0,0,0,0,0
			C48.5,98.1,48.7,98,48.9,97.9z"/>
		<path class="st1" d="M51.7,98.6c0-0.1,0-0.5,0-0.7c0.1,0,0.5,0.2,0.6,0.3c0,0.1-0.1,0.4-0.1,0.5C52,98.7,51.8,98.7,51.7,98.6z"/>
		<path class="st1" d="M59.5,98.3c0.1-0.1,0.5-0.3,0.6-0.3h0v0c0,0.2,0,0.4,0,0.5c0,0,0,0.1,0,0.1c-0.1,0.1-0.3,0.1-0.5,0.1
			c0,0,0,0,0-0.1C59.6,98.5,59.6,98.4,59.5,98.3z"/>
		<path class="st1" d="M62.9,98c0.1,0,0.5,0.2,0.6,0.3c0,0.1-0.1,0.4-0.1,0.5c-0.2,0-0.3-0.1-0.5-0.1C62.9,98.5,62.9,98.1,62.9,98z"
			/>
		<path class="st1" d="M70.9,98.8c0-0.2-0.1-0.3-0.1-0.5c0.1-0.1,0.4-0.3,0.6-0.3c0,0.1,0,0.5,0,0.7C71.2,98.7,71,98.7,70.9,98.8z"
			/>
		<path class="st1" d="M74.7,98.3c0,0.1-0.1,0.4-0.1,0.5c-0.2,0-0.3-0.1-0.5-0.1c0-0.1,0-0.5,0-0.7c0,0,0,0,0,0
			C74.3,98,74.4,98.1,74.7,98.3C74.6,98.2,74.6,98.2,74.7,98.3z"/>
		<path class="st1" d="M31.2,95.2c0.1,0.1,0.2,0.2,0.4,0.3c-0.1,0.1-0.2,0.2-0.4,0.4c-0.1,0-0.2-0.1-0.3-0.2c-0.1,0-0.2-0.1-0.3-0.2
			C30.7,95.5,31.1,95.3,31.2,95.2z"/>
		<path class="st1" d="M36.4,95.6c-0.2,0.1-0.4,0.2-0.6,0.4c-0.1-0.1-0.3-0.2-0.4-0.3c0.1-0.1,0.2-0.2,0.4-0.4
			C35.9,95.3,36.2,95.4,36.4,95.6z"/>
		<path class="st1" d="M41.8,95.6c0.2-0.1,0.4-0.2,0.6-0.4c0.1,0.1,0.3,0.2,0.4,0.4c-0.1,0.1-0.2,0.2-0.4,0.3
			c-0.1,0-0.1-0.1-0.2-0.1c-0.1,0-0.1-0.1-0.2-0.1C42,95.7,41.9,95.6,41.8,95.6z"/>
		<path class="st1" d="M46.6,95.6c0.1-0.1,0.2-0.2,0.4-0.4c0.2,0.1,0.4,0.2,0.6,0.4c-0.2,0.1-0.4,0.2-0.6,0.4
			C46.9,95.9,46.8,95.7,46.6,95.6z"/>
		<path class="st1" d="M53.6,95.9c-0.2-0.1-0.4-0.2-0.6-0.3c0.1-0.1,0.4-0.3,0.6-0.4c0,0,0,0,0,0c0.1,0.1,0.2,0.2,0.3,0.3
			C53.9,95.7,53.8,95.8,53.6,95.9z"/>
		<path class="st1" d="M57.8,95.6c0.1-0.1,0.2-0.2,0.4-0.3c0.1,0,0.1,0.1,0.2,0.1c0.1,0,0.1,0.1,0.2,0.1c0.1,0,0.1,0.1,0.2,0.1
			c-0.2,0.1-0.3,0.2-0.5,0.3c0,0,0,0-0.1,0C58.1,95.8,57.9,95.7,57.8,95.6z"/>
		<path class="st1" d="M69,95.6c0.1-0.1,0.2-0.2,0.4-0.4c0.2,0.1,0.4,0.2,0.6,0.4c-0.2,0.1-0.4,0.2-0.6,0.4c-0.1,0-0.1-0.1-0.2-0.2
			C69.1,95.7,69.1,95.6,69,95.6z"/>
		<path class="st1" d="M68.5,96.4c0-0.2,0-0.5,0-0.7c0.1,0,0.2-0.1,0.2-0.1c0.1,0,0.2,0,0.2-0.1c0,0.2,0.1,0.3,0.1,0.5
			C69,96.2,68.7,96.3,68.5,96.4z"/>
		<path class="st1" d="M32.1,95.7c0,0.1,0,0.6,0,0.7c-0.1,0-0.5-0.2-0.6-0.3c0,0,0,0,0-0.1c0-0.1,0.1-0.3,0.1-0.4
			C31.8,95.6,32,95.7,32.1,95.7z"/>
		<path class="st1" d="M35.5,96.1c-0.1,0.1-0.4,0.3-0.6,0.3c0-0.1,0-0.5,0-0.7c0.1,0,0.1,0,0.2-0.1c0.1,0,0.2,0,0.2-0.1
			C35.4,95.8,35.4,95.9,35.5,96.1z"/>
		<path class="st1" d="M43.3,96.4c-0.2-0.1-0.5-0.2-0.6-0.3c0,0,0,0,0-0.1c0-0.1,0.1-0.3,0.1-0.4c0.2,0,0.3,0.1,0.5,0.1
			c0,0.1,0,0.2,0,0.2s0,0.1,0,0.2C43.3,96.3,43.3,96.3,43.3,96.4z"/>
		<path class="st1" d="M53.9,96.1c0-0.1,0-0.2,0.1-0.4c0,0,0-0.1,0-0.1c0.2,0,0.3,0.1,0.5,0.1c0,0.1,0,0.2,0,0.3c0,0.1,0,0.2,0,0.3
			c-0.1,0-0.2-0.1-0.3-0.1C54.1,96.2,54,96.2,53.9,96.1z"/>
		<path class="st1" d="M57.3,96.4c0-0.2,0-0.5,0-0.7c0.1,0,0.2-0.1,0.2-0.1c0.1,0,0.2,0,0.2-0.1c0,0.2,0.1,0.3,0.1,0.5
			C57.8,96.2,57.5,96.3,57.3,96.4z"/>
		<path class="st1" d="M65.1,96.1c0-0.2,0.1-0.3,0.1-0.5c0.1,0,0.3,0.1,0.4,0.1c0,0,0.1,0,0.1,0c0,0.1,0,0.5,0,0.7
			C65.6,96.4,65.3,96.2,65.1,96.1z"/>
		<path class="st1" d="M46.1,96.4c0-0.1,0-0.5,0-0.7c0.1,0,0.1,0,0.2-0.1c0.1,0,0.2,0,0.2-0.1c0.1,0.2,0.1,0.3,0.1,0.5
			C46.6,96.2,46.2,96.4,46.1,96.4z"/>
		<path class="st1" d="M31.7,95.5c0-0.2-0.1-0.3-0.1-0.5c0.1-0.1,0.5-0.3,0.6-0.3c0,0.1,0,0.5,0,0.7C32,95.4,31.8,95.5,31.7,95.5z"
			/>
		<path class="st1" d="M42.9,95.5c0-0.2-0.1-0.3-0.1-0.5c0.1-0.1,0.4-0.3,0.6-0.3h0v0c0,0.2,0,0.4,0,0.6c0,0,0,0,0,0.1
			C43.2,95.4,43,95.5,42.9,95.5z"/>
		<path class="st1" d="M57.9,95c0,0.2-0.1,0.3-0.1,0.5c-0.2,0-0.3-0.1-0.5-0.1c0-0.1,0-0.2,0-0.3c0-0.1,0-0.2,0-0.3
			C57.4,94.8,57.7,94.9,57.9,95z"/>
		<path class="st1" d="M65.3,95.5c0-0.2-0.1-0.3-0.1-0.5c0.1-0.1,0.5-0.3,0.6-0.3c0,0.1,0,0.5,0,0.7c-0.1,0-0.2,0.1-0.2,0.1
			C65.4,95.5,65.3,95.5,65.3,95.5z"/>
		<path class="st1" d="M68.5,95.4c0-0.1,0-0.5,0-0.7c0.1,0,0.2,0.1,0.3,0.1c0.1,0,0.2,0.1,0.3,0.2c0,0.1,0,0.2,0,0.2
			c0,0.1,0,0.2-0.1,0.2C68.8,95.5,68.6,95.4,68.5,95.4z"/>
		<path class="st1" d="M46.1,95.4c0-0.1,0-0.5,0-0.7c0.1,0,0.5,0.2,0.6,0.3c0,0.2-0.1,0.3-0.1,0.5C46.4,95.5,46.2,95.5,46.1,95.4z"
			/>
		<path class="st1" d="M54.1,95.5c0-0.2-0.1-0.3-0.1-0.5c0.1-0.1,0.4-0.3,0.6-0.3c0,0.1,0,0.5,0,0.7c-0.1,0.1-0.2,0.1-0.2,0.1
			C54.2,95.5,54.1,95.5,54.1,95.5z"/>
		<path class="st1" d="M35.5,95c0,0.2-0.1,0.3-0.1,0.5c-0.1,0-0.3-0.1-0.5-0.1c0-0.1,0-0.2,0-0.3s0-0.2,0-0.3
			C35,94.8,35.3,94.9,35.5,95z"/>
		<path class="st1" d="M37.2,98.8C37.1,98.9,37,99,37,99c0,0-0.1,0.1-0.1,0.1c-0.2-0.1-0.4-0.2-0.6-0.3c0.2-0.1,0.4-0.2,0.6-0.3
			C36.9,98.5,37.1,98.7,37.2,98.8z"/>
		<path class="st1" d="M41.4,99.1c-0.1-0.1-0.2-0.2-0.4-0.3c0.1-0.1,0.2-0.2,0.4-0.4c0.1,0,0.2,0.1,0.3,0.2c0.1,0,0.2,0.1,0.3,0.2
			C41.9,98.9,41.6,99.1,41.4,99.1z"/>
		<path class="st1" d="M48,98.4c0.1,0.1,0.2,0.2,0.3,0.3c0,0,0,0,0.1,0.1c-0.1,0.1-0.2,0.2-0.4,0.3c-0.1,0-0.5-0.2-0.6-0.3
			C47.6,98.7,47.8,98.6,48,98.4z"/>
		<path class="st1" d="M53.2,98.8c-0.2,0.1-0.4,0.2-0.6,0.3c-0.1,0-0.3-0.2-0.4-0.3c0,0,0,0,0-0.1c0.1-0.1,0.2-0.2,0.3-0.3
			c0.1,0,0.2,0.1,0.3,0.2C53,98.7,53.1,98.7,53.2,98.8z"/>
		<path class="st1" d="M59.6,98.8c-0.1,0.1-0.2,0.2-0.4,0.3c-0.1,0-0.1-0.1-0.2-0.1c-0.1,0-0.1-0.1-0.2-0.1c-0.1,0-0.1-0.1-0.2-0.1
			c0.1-0.1,0.4-0.3,0.6-0.4C59.4,98.5,59.5,98.7,59.6,98.8z"/>
		<path class="st1" d="M75,99.1c-0.1-0.1-0.2-0.2-0.4-0.3c0-0.1,0.1-0.1,0.2-0.2s0.1-0.1,0.2-0.2c0.1,0,0.4,0.2,0.6,0.3
			C75.5,98.9,75.1,99.1,75,99.1z"/>
		<path class="st1" d="M70.8,98.8c-0.1,0.1-0.2,0.2-0.4,0.3c-0.1,0-0.1-0.1-0.2-0.1c-0.1,0-0.1-0.1-0.2-0.1c-0.1,0-0.1-0.1-0.2-0.1
			c0.1-0.1,0.4-0.3,0.6-0.4C70.6,98.5,70.7,98.7,70.8,98.8z"/>
		<path class="st1" d="M64.4,98.8c-0.2,0.1-0.4,0.2-0.6,0.4c-0.1-0.1-0.2-0.2-0.4-0.3c0.1-0.1,0.2-0.2,0.4-0.4
			c0.1,0,0.2,0.1,0.3,0.2C64.2,98.7,64.3,98.7,64.4,98.8z"/>
	</g>
	<path class="st1" d="M82.7,99c0,0.1,0,0.5,0,0.7c0,0,0,0-0.1,0c-0.2-0.1-0.3-0.2-0.5-0.3c0,0,0,0,0,0c0-0.1,0-0.4,0.1-0.5
		C82.4,98.9,82.6,98.9,82.7,99z"/>
	<path class="st1" d="M85.5,99c0.2,0,0.3-0.1,0.5-0.1C86,98.9,86,99,86,99.1s0,0.2,0,0.2c-0.1,0.1-0.4,0.3-0.6,0.3
		C85.4,99.5,85.4,99.2,85.5,99z"/>
	<path class="st1" d="M93.9,99c0,0.1,0,0.5,0,0.7c-0.1,0-0.5-0.2-0.6-0.3c0-0.2,0.1-0.3,0.1-0.5c0,0,0.1,0,0.1,0
		C93.7,98.9,93.8,98.9,93.9,99z"/>
	<path class="st1" d="M95.7,99.6c0-0.2,0-0.5,0-0.7c0.1-0.1,0.3-0.1,0.5-0.1c0,0,0,0,0,0c0,0.1,0.1,0.3,0.1,0.5
		C96.2,99.4,95.9,99.6,95.7,99.6z"/>
	<path class="st1" d="M82.3,98.8c0-0.2-0.1-0.3-0.1-0.5c0.1-0.1,0.2-0.1,0.3-0.2c0.1,0,0.2-0.1,0.3-0.1c0,0.1,0,0.5,0,0.7
		c0,0,0,0,0,0C82.6,98.7,82.4,98.7,82.3,98.8z"/>
	<path class="st1" d="M85.5,98.6c0-0.1,0-0.5,0-0.7c0,0,0,0,0,0c0.1,0,0.5,0.2,0.6,0.3c0,0.1,0,0.3-0.1,0.5
		C85.8,98.7,85.6,98.7,85.5,98.6z"/>
	<path class="st1" d="M93.9,97.9c0,0.2,0,0.5,0,0.7c-0.2,0.1-0.3,0.1-0.5,0.2c0-0.2-0.1-0.3-0.1-0.5c0,0,0,0,0,0
		C93.6,98.1,93.7,98,93.9,97.9z"/>
	<path class="st1" d="M95.7,98.6c0-0.1,0-0.5,0-0.7c0.1,0,0.5,0.2,0.6,0.3c0,0.1-0.1,0.4-0.1,0.5C96,98.7,95.8,98.7,95.7,98.6z"/>
	<path class="st1" d="M76.2,95.2c0.1,0.1,0.2,0.2,0.4,0.3c-0.1,0.1-0.2,0.2-0.4,0.4c-0.1,0-0.2-0.1-0.3-0.2c-0.1,0-0.2-0.1-0.3-0.2
		C75.7,95.5,76.1,95.3,76.2,95.2z"/>
	<path class="st1" d="M81.4,95.6c-0.2,0.1-0.4,0.2-0.6,0.4c-0.1-0.1-0.3-0.2-0.4-0.3c0.1-0.1,0.2-0.2,0.4-0.4
		C80.9,95.3,81.1,95.4,81.4,95.6z"/>
	<path class="st1" d="M86.8,95.6c0.2-0.1,0.4-0.2,0.6-0.4c0.1,0.1,0.3,0.2,0.4,0.4c-0.1,0.1-0.2,0.2-0.4,0.3c-0.1,0-0.1-0.1-0.2-0.1
		c-0.1,0-0.1-0.1-0.2-0.1C87,95.7,86.9,95.6,86.8,95.6z"/>
	<path class="st1" d="M91.6,95.6c0.1-0.1,0.2-0.2,0.4-0.4c0.2,0.1,0.4,0.2,0.6,0.4c-0.2,0.1-0.4,0.2-0.6,0.4
		C91.9,95.9,91.8,95.7,91.6,95.6z"/>
	<path class="st1" d="M97.6,95.9c-0.2-0.1-0.4-0.2-0.6-0.3c0.1-0.1,0.4-0.3,0.6-0.4c0,0,0,0,0,0c0.1,0.1,0.2,0.2,0.3,0.3
		C97.9,95.7,97.8,95.8,97.6,95.9z"/>
	<path class="st1" d="M77.1,95.7c0,0.1,0,0.6,0,0.7c-0.1,0-0.5-0.2-0.6-0.3c0,0,0,0,0-0.1c0-0.1,0.1-0.3,0.1-0.4
		C76.8,95.6,77,95.7,77.1,95.7z"/>
	<path class="st1" d="M80.5,96.1c-0.1,0.1-0.4,0.3-0.6,0.3c0-0.1,0-0.5,0-0.7c0.1,0,0.1,0,0.2-0.1c0.1,0,0.2,0,0.2-0.1
		C80.4,95.8,80.4,95.9,80.5,96.1z"/>
	<path class="st1" d="M88.3,96.4c-0.2-0.1-0.5-0.2-0.6-0.3c0,0,0,0,0-0.1c0-0.1,0.1-0.3,0.1-0.4c0.2,0,0.3,0.1,0.5,0.1
		c0,0.1,0,0.2,0,0.2s0,0.1,0,0.2C88.3,96.3,88.3,96.3,88.3,96.4z"/>
	<path class="st1" d="M97.9,96.1c0-0.1,0-0.2,0.1-0.4c0,0,0-0.1,0-0.1c0.2,0,0.3,0.1,0.5,0.1c0,0.1,0,0.2,0,0.3c0,0.1,0,0.2,0,0.3
		c-0.1,0-0.2-0.1-0.3-0.1C98.1,96.2,98,96.2,97.9,96.1z"/>
	<path class="st1" d="M91.1,96.4c0-0.1,0-0.5,0-0.7c0.1,0,0.1,0,0.2-0.1c0.1,0,0.2,0,0.2-0.1c0.1,0.2,0.1,0.3,0.1,0.5
		C91.6,96.2,91.2,96.4,91.1,96.4z"/>
	<path class="st1" d="M76.6,95.5c0-0.2-0.1-0.3-0.1-0.5c0.1-0.1,0.5-0.3,0.6-0.3c0,0.1,0,0.5,0,0.7C77,95.4,76.8,95.5,76.6,95.5z"/>
	<path class="st1" d="M87.8,95.5c0-0.2-0.1-0.3-0.1-0.5c0.1-0.1,0.4-0.3,0.6-0.3h0v0c0,0.2,0,0.4,0,0.6c0,0,0,0,0,0.1
		C88.2,95.4,88,95.5,87.8,95.5z"/>
	<path class="st1" d="M91.1,95.4c0-0.1,0-0.5,0-0.7c0.1,0,0.5,0.2,0.6,0.3c0,0.2-0.1,0.3-0.1,0.5C91.4,95.5,91.2,95.5,91.1,95.4z"/>
	<path class="st1" d="M98.1,95.5c0-0.2-0.1-0.3-0.1-0.5c0.1-0.1,0.4-0.3,0.6-0.3c0,0.1,0,0.5,0,0.7c-0.1,0.1-0.2,0.1-0.2,0.1
		C98.2,95.5,98.1,95.5,98.1,95.5z"/>
	<path class="st1" d="M80.5,95c0,0.2-0.1,0.3-0.1,0.5c-0.1,0-0.3-0.1-0.5-0.1c0-0.1,0-0.2,0-0.3s0-0.2,0-0.3
		C80,94.8,80.3,94.9,80.5,95z"/>
	<path class="st1" d="M82.2,98.8C82.1,98.9,82,99,81.9,99c0,0-0.1,0.1-0.1,0.1c-0.2-0.1-0.4-0.2-0.6-0.3c0.2-0.1,0.4-0.2,0.6-0.3
		C81.9,98.5,82.1,98.7,82.2,98.8z"/>
	<path class="st1" d="M86.4,99.1c-0.1-0.1-0.2-0.2-0.4-0.3c0.1-0.1,0.2-0.2,0.4-0.4c0.1,0,0.2,0.1,0.3,0.2c0.1,0,0.2,0.1,0.3,0.2
		C86.9,98.9,86.6,99.1,86.4,99.1z"/>
	<path class="st1" d="M93,98.4c0.1,0.1,0.2,0.2,0.3,0.3c0,0,0,0,0.1,0.1c-0.1,0.1-0.2,0.2-0.4,0.3c-0.1,0-0.5-0.2-0.6-0.3
		C92.6,98.7,92.8,98.6,93,98.4z"/>
	<path class="st1" d="M97.2,98.8c-0.2,0.1-0.4,0.2-0.6,0.3c-0.1,0-0.3-0.2-0.4-0.3c0,0,0,0,0-0.1c0.1-0.1,0.2-0.2,0.3-0.3
		c0.1,0,0.2,0.1,0.3,0.2C97,98.7,97.1,98.7,97.2,98.8z"/>
</g>
</svg>
