<?xml version="1.0" encoding="utf-8"?>
<!-- Generator: Adobe Illustrator 23.0.3, SVG Export Plug-In . SVG Version: 6.00 Build 0)  -->
<svg version="1.1" id="Layer_1" xmlns="http://www.w3.org/2000/svg" xmlns:xlink="http://www.w3.org/1999/xlink" x="0px" y="0px"
	 viewBox="0 0 236 236.2" style="enable-background:new 0 0 236 236.2;" xml:space="preserve">
<style type="text/css">
	.st0{fill:#FFFFFF;}
</style>
<g>
	<path class="st0" d="M110,154c10,0,18,8,18,17c0,10-8,18-18,18s-18-8-18-18C92,162,100,154,110,154z"/>
	<path class="st0" d="M197,154c9,0,17,8,17,17c0,10-8,18-17,18c-10,0-18-8-18-18C179,162,187,154,197,154z"/>
	<path class="st0" d="M8,17C-3,17-3,0,8,0h39l14,36h175l-24,84H93l4,10h111c11,0,11,17,0,17H86L36,17H8z"/>
</g>
</svg>
