<?xml version="1.0" encoding="utf-8"?>
<!-- Generator: Adobe Illustrator 23.0.3, SVG Export Plug-In . SVG Version: 6.00 Build 0)  -->
<svg version="1.1" id="Layer_1" xmlns="http://www.w3.org/2000/svg" xmlns:xlink="http://www.w3.org/1999/xlink" x="0px" y="0px"
	 viewBox="0 0 64 80" style="enable-background:new 0 0 64 80;" xml:space="preserve">
<style type="text/css">
	.st0{fill:#FFFFFF;}
</style>
<title>champagne-alcohol-celebration-alcoholic drinks-food and restaurant-party</title>
<g>
	<path class="st0" d="M48.7,6.3c-0.4-0.4-1-0.4-1.4,0l-3,3c-0.4,0.4-0.4,1,0,1.4l0.3,0.3l-5,4.9c-1.3,1.3-3.1,2.1-4.9,2h-4.4
		c-2.4,0-4.7,0.9-6.4,2.6L2.7,41.9c-1.2,1.2-1.2,3.1,0,4.2l15.2,15.2c1.2,1.2,3.1,1.2,4.2,0c0,0,0,0,0,0l1.9-1.9L36.4,47l0,0l7-7
		c1.7-1.7,2.6-4,2.6-6.4v-4.4c0-1.9,0.7-3.6,2-4.9l5-5l0.3,0.3c0.4,0.4,1,0.4,1.4,0l3-3c0.4-0.4,0.4-1,0-1.4L48.7,6.3z M20.7,59.9
		c-0.4,0.4-1,0.4-1.4,0L4.1,44.7c-0.4-0.4-0.4-1,0-1.4L6,41.4L22.6,58L20.7,59.9z M24,56.6L7.4,40l9.6-9.6L33.6,47L24,56.6z
		 M42,38.6l-7,7L18.4,29l6.9-7c0.9-0.9,2.1-1.6,3.4-1.9l4.1,4.1c-1.5,2.3-0.9,5.4,1.4,6.9c1.7,1.1,3.8,1.1,5.5,0l4.1,4.1
		C43.5,36.5,42.9,37.7,42,38.6z M34,27c0-1.7,1.3-3,3-3s3,1.3,3,3s-1.3,3-3,3S34,28.7,34,27z M46.6,23c-1.7,1.7-2.6,4-2.6,6.4v3.3
		l-2.8-2.8c1.5-2.3,0.9-5.4-1.4-6.9c-1.7-1.1-3.8-1.1-5.5,0L31.4,20h3.3c2.4,0,4.7-0.9,6.4-2.6l5-5l5.6,5.6L46.6,23z M54,17.6
		L46.4,10L48,8.4l7.6,7.6L54,17.6z"/>
	<rect x="53.8" y="5" transform="matrix(0.7071 -0.7071 0.7071 0.7071 12.7444 42.7694)" class="st0" width="8.5" height="2"/>
	<path class="st0" d="M53.5,5.9C54.5,4.9,55,3.7,55,2.3V2h-2v0.3c0,0.8-0.3,1.6-0.9,2.1l-0.8,0.8l1.4,1.4L53.5,5.9z"/>
	<path class="st0" d="M61.7,9c-1.3,0-2.6,0.5-3.5,1.5l-0.8,0.8l1.4,1.4l0.8-0.8c0.6-0.6,1.3-0.9,2.1-0.9H62V9H61.7z"/>
</g>
</svg>
