<?xml version="1.0" encoding="utf-8"?>
<!-- Generator: Adobe Illustrator 23.0.3, SVG Export Plug-In . SVG Version: 6.00 Build 0)  -->
<svg version="1.1" id="Layer_1" xmlns="http://www.w3.org/2000/svg" xmlns:xlink="http://www.w3.org/1999/xlink" x="0px" y="0px"
	 viewBox="0 0 100 125" style="enable-background:new 0 0 100 125;" xml:space="preserve">
<style type="text/css">
	.st0{fill:#FFFFFF;}
</style>
<path class="st0" d="M89.3,47.2h-3.2V37c0-2.9-1.3-5.6-3.5-7.6c-2-1.7-3-4-3-6.3v-6.6c0.6-0.3,0.9-0.9,0.9-1.6v-3.3
	c0-1-0.8-1.9-1.9-1.9h-6.7c-1,0-1.9,0.8-1.9,1.9v3.3c0,0.8,0.5,1.4,1.1,1.7v6.2c0,2.5-1.1,4.8-3.1,6.4c-2.3,2-3.6,4.8-3.6,7.7v10.2
	H61V37c0-2.9-1.3-5.6-3.5-7.6c-2-1.7-3-4-3-6.3v-6.6c0.6-0.3,0.9-0.9,0.9-1.6v-3.3c0-1-0.8-1.9-1.9-1.9h-6.7c-1,0-1.9,0.8-1.9,1.9
	v3.3c0,0.8,0.5,1.4,1.1,1.7v6.2c0,2.5-1.1,4.8-3.1,6.4c-2.3,2-3.6,4.8-3.6,7.7v10.2h-3.5V37c0-2.9-1.3-5.6-3.5-7.6c-2-1.7-3-4-3-6.3
	v-6.6c0.6-0.3,0.9-0.9,0.9-1.6v-3.3c0-1-0.8-1.9-1.9-1.9h-6.7c-1,0-1.9,0.8-1.9,1.9v3.3c0,0.8,0.5,1.4,1.1,1.7v6.2
	c0,2.5-1.1,4.8-3.1,6.4c-2.3,2-3.6,4.8-3.6,7.7v10.2h-3.2c-0.6,0-1,0.4-1,1v9.3c0,0.6,0.4,1,1,1h2.2v4.4h-2.2c-0.6,0-1,0.4-1,1v9.3
	c0,0.6,0.4,1,1,1h2.2v4.4h-2.2c-0.6,0-1,0.4-1,1v9.3c0,0.6,0.4,1,1,1h78.2c0.6,0,1-0.4,1-1v-9.3c0-0.6-0.4-1-1-1h-2.2v-4.4h2.2
	c0.6,0,1-0.4,1-1v-9.3c0-0.6-0.4-1-1-1h-2.2v-4.4h2.2c0.6,0,1-0.4,1-1v-9.3C90.3,47.6,89.9,47.2,89.3,47.2z M73.2,22.8v-6h4.4v6.4
	c0,0,0,0.1,0,0.1h-4.4C73.2,23.1,73.2,23,73.2,22.8z M72.1,11.7h6.5v3.1h-6.5V11.7z M69.4,30.8c1.7-1.5,2.9-3.4,3.4-5.5h4.9
	c0.5,2.1,1.7,4.1,3.5,5.6c1.8,1.6,2.8,3.8,2.8,6.1v2.8H66.5V37C66.5,34.6,67.6,32.4,69.4,30.8z M66.5,41.8h17.6v5.4H66.5V41.8z
	 M48.1,22.8v-6h4.4v6.4c0,0,0,0.1,0,0.1h-4.4C48.1,23.1,48.1,23,48.1,22.8z M47,11.7h6.5v3.1H47V11.7z M44.3,30.8
	c1.7-1.5,2.9-3.4,3.4-5.5h4.9c0.5,2.1,1.7,4.1,3.5,5.6C58,32.5,59,34.7,59,37v2.8H41.4V37C41.4,34.6,42.5,32.4,44.3,30.8z
	 M41.4,41.8H59v5.4H41.4V41.8z M23,22.8v-6h4.4v6.4c0,0,0,0.1,0,0.1H23C23,23.1,23,23,23,22.8z M21.9,11.7h6.5v3.1h-6.5V11.7z
	 M19.2,30.8c1.7-1.5,2.9-3.4,3.4-5.5h4.9c0.5,2.1,1.7,4.1,3.5,5.6c1.8,1.6,2.8,3.8,2.8,6.1v2.8H16.3V37
	C16.3,34.6,17.4,32.4,19.2,30.8z M16.3,41.8h17.6v5.4H16.3V41.8z M88.3,87.9H12.1v-7.3h76.2V87.9z M85.1,78.6H15.3v-4.4h69.8
	L85.1,78.6L85.1,78.6z M88.3,72.2H12.1v-7.3h76.2V72.2z M85.1,62.9H15.3v-4.4h69.8L85.1,62.9L85.1,62.9z M88.3,56.5H12.1v-7.3h76.2
	V56.5z"/>
</svg>
