<?xml version="1.0" encoding="utf-8"?>
<!-- Generator: Adobe Illustrator 23.0.3, SVG Export Plug-In . SVG Version: 6.00 Build 0)  -->
<svg version="1.1" id="Layer_1" xmlns="http://www.w3.org/2000/svg" xmlns:xlink="http://www.w3.org/1999/xlink" x="0px" y="0px"
	 viewBox="0 0 32 40" style="enable-background:new 0 0 32 40;" xml:space="preserve">
<style type="text/css">
	.st0{fill:#a6212c;}
</style>
<title>fill-web</title>
<path class="st0" d="M27.7,5.4c-3.4-3.7-9.1-4.1-12.9-0.7L2.7,15.6c-0.8,0.7-0.9,2-0.2,2.8L12.1,29c0.7,0.8,2,0.9,2.8,0.1L27,18.3
	C30.7,14.9,31,9.1,27.7,5.4L27.7,5.4z M24,12.7c-1.2,1.1-3.1,1-4.2-0.3s-1-3.1,0.3-4.2c1.2-1.1,3.1-1,4.2,0.2
	C25.4,9.6,25.3,11.5,24,12.7C24,12.7,24,12.7,24,12.7z"/>
</svg>
