<?xml version="1.0" encoding="utf-8"?>
<!-- Generator: Adobe Illustrator 23.0.3, SVG Export Plug-In . SVG Version: 6.00 Build 0)  -->
<svg version="1.1" id="Layer_1" xmlns="http://www.w3.org/2000/svg" xmlns:xlink="http://www.w3.org/1999/xlink" x="0px" y="0px"
	 viewBox="0 0 100 125" style="enable-background:new 0 0 100 125;" xml:space="preserve">
<style type="text/css">
	.st0{fill:#FFFFFF;}
</style>
<title>heart 2k18</title>
<path class="st0" d="M100,31.9v8c-0.1,0.2-0.1,0.4-0.2,0.5c-0.4,3.2-1.3,6.3-2.7,9.2C94.1,56,90,61.7,85,66.7
	C74.9,77.2,63.2,85.8,50.8,93.4c-0.4,0.3-1.1,0.3-1.5,0c-10-6-19.4-12.9-28-20.6C15.1,67.3,9.7,61,5.3,54
	c-4.9-7.7-6.5-17.2-4.4-26.1C5.5,7.7,30.6-0.5,46.3,13c1.3,1.1,2.5,2.5,3.9,3.8c0.1-0.1,0.2-0.3,0.3-0.4c7-7.8,15.7-11.3,26-9.6
	c11.3,1.9,18.8,8.7,22.4,19.6C99.3,28.2,99.7,30,100,31.9z"/>
</svg>
