<?xml version="1.0" encoding="utf-8"?>
<!-- Generator: Adobe Illustrator 23.0.3, SVG Export Plug-In . SVG Version: 6.00 Build 0)  -->
<svg version="1.1" xmlns="http://www.w3.org/2000/svg" xmlns:xlink="http://www.w3.org/1999/xlink" x="0px" y="0px"
	 viewBox="0 0 512 512" style="enable-background:new 0 0 512 512;" xml:space="preserve">
<style type="text/css">
	.st0{display:none;}
	.st1{display:inline;}
	.st2{fill:#FFFFFF;}
	.st3{fill-rule:evenodd;clip-rule:evenodd;fill:#FFFFFF;}
</style>
<g id="Layer_1" class="st0">
	<g class="st1">
		<path class="st2" d="M390.9,153.9c-3.1-8.1-6.9-13.8-12.9-19.9c-6.1-6.1-11.8-9.8-19.9-12.9c-6.1-2.4-15.3-5.2-32.1-6
			c-18.3-0.8-23.7-1-69.9-1c-46.2,0-51.7,0.2-69.9,1c-16.9,0.8-26,3.6-32.1,6c-8.1,3.1-13.8,6.9-19.9,12.9
			c-6.1,6.1-9.8,11.8-12.9,19.9c-2.4,6.1-5.2,15.3-6,32.1c-0.8,18.3-1,23.7-1,69.9c0,46.2,0.2,51.7,1,69.9c0.8,16.9,3.6,26,6,32.1
			c3.1,8.1,6.9,13.8,12.9,19.9c6.1,6.1,11.8,9.8,19.9,12.9c6.1,2.4,15.3,5.2,32.1,6c18.3,0.8,23.7,1,69.9,1c46.2,0,51.7-0.2,69.9-1
			c16.9-0.8,26-3.6,32.1-6c8.1-3.1,13.8-6.9,19.9-12.9c6.1-6.1,9.8-11.8,12.9-19.9c2.4-6.1,5.2-15.3,6-32.1c0.8-18.3,1-23.7,1-69.9
			c0-46.2-0.2-51.7-1-69.9C396.1,169.2,393.3,160,390.9,153.9z M256,344.9c-49.1,0-88.9-39.8-88.9-88.9c0-49.1,39.8-88.9,88.9-88.9
			c49.1,0,88.9,39.8,88.9,88.9C344.9,305.1,305.1,344.9,256,344.9z M348.4,184.4c-11.5,0-20.8-9.3-20.8-20.8
			c0-11.5,9.3-20.8,20.8-20.8c11.5,0,20.8,9.3,20.8,20.8C369.2,175.1,359.9,184.4,348.4,184.4z"/>
		<path class="st2" d="M256,0C114.6,0,0,114.6,0,256s114.6,256,256,256s256-114.6,256-256S397.4,0,256,0z M428.1,327.4
			c-0.8,18.4-3.8,31-8,42c-4.4,11.4-10.3,21-20,30.7c-9.6,9.6-19.3,15.5-30.7,20c-11,4.3-23.6,7.2-42,8c-18.5,0.8-24.4,1-71.4,1
			c-47,0-52.9-0.2-71.4-1c-18.4-0.8-31-3.8-42-8c-11.4-4.4-21-10.3-30.7-20c-9.6-9.6-15.5-19.3-20-30.7c-4.3-11-7.2-23.6-8-42
			c-0.8-18.5-1-24.4-1-71.4c0-47,0.2-52.9,1-71.4c0.8-18.4,3.8-31,8-42c4.4-11.4,10.3-21,20-30.7c9.6-9.6,19.3-15.5,30.7-20
			c11-4.3,23.6-7.2,42-8c18.5-0.8,24.4-1,71.4-1c47,0,52.9,0.2,71.4,1c18.4,0.8,31,3.8,42,8c11.4,4.4,21,10.3,30.7,20
			c9.6,9.6,15.5,19.3,20,30.7c4.3,11,7.2,23.6,8,42c0.8,18.5,1,24.4,1,71.4C429.1,303,428.9,308.9,428.1,327.4z"/>
		<ellipse transform="matrix(0.9571 -0.2898 0.2898 0.9571 -63.1999 85.1694)" class="st2" cx="256" cy="256" rx="57.7" ry="57.7"/>
	</g>
</g>
<g id="Layer_2">
	<path class="st3" d="M256,0C114.6,0,0,114.6,0,256c0,141.4,114.6,256,256,256c141.4,0,256-114.6,256-256C512,114.6,397.4,0,256,0z
		 M323.8,156.1c-8.5-0.1-17-0.1-25.5,0c-11.3,0-18.1,5.9-18.8,17c-0.6,9-0.2,18-0.4,27c-0.1,3.2,1.8,3,4,3c12.9,0,25.8,0.1,38.7-0.1
		c3.8-0.1,5,0.8,4.6,4.8c-1.6,15-3,30.1-4.3,45.1c-0.3,3.4-1.8,4-4.9,4c-10.2-0.2-20.4-0.1-30.6,0c-7.3,0-6.6-1.1-6.6,6.4
		c0,46.9-0.1,93.8,0.1,140.7c0,5-1.2,6.2-6.1,6.1c-17.5-0.3-35-0.3-52.5,0c-4.9,0.1-5.7-1.6-5.7-6c0.2-23.6,0.1-47.2,0.1-70.9
		c0-24-0.1-47.9,0.1-71.9c0-4-1.1-5.3-5.1-5.1c-7.5,0.3-15,0-22.4,0.1c-3,0.1-4.1-0.8-4.1-4c0.2-14.9,0.1-29.9,0-44.9
		c0-2.9,0.8-3.8,3.7-3.8c7.6,0.2,15.3-0.2,22.9,0.2c4.4,0.2,5.3-1.4,5.2-5.5c-0.3-11.4-0.3-22.8,0-34.1c0.3-13.9,4-26.9,12.3-38.2
		c10.5-14.3,25.4-20.8,42.5-21.6c17.6-0.8,35.3-0.3,53-0.5c2.5,0,3.2,0.9,3.2,3.2c-0.1,15.1-0.1,30.2,0,45.4
		C327.3,155.4,326.4,156.2,323.8,156.1z"/>
</g>
</svg>
