<?xml version="1.0" encoding="utf-8"?>
<!-- Generator: Adobe Illustrator 23.0.3, SVG Export Plug-In . SVG Version: 6.00 Build 0)  -->
<svg version="1.1" id="Layer_1" xmlns="http://www.w3.org/2000/svg" xmlns:xlink="http://www.w3.org/1999/xlink" x="0px" y="0px"
	 viewBox="0 0 792 612" style="enable-background:new 0 0 792 612;" xml:space="preserve">
<style type="text/css">
	.st0{fill:#FFFFFF;}
</style>
<g>
	<path class="st0" d="M155.4,251.3c0,0-4.9,1.1-3.8-3.9c0,0,0.5-6.1-5.5-5.8c-6,0.3-10.1,4.6-4.4,6.7c5.7,2.2,9.2,10.7,1.8,14.5
		C136.1,266.5,156,263.6,155.4,251.3z"/>
	<path class="st0" d="M174.7,246.2c-2.4,16.9-12.7,48.7-55.5,52.7c0,0-8.8,8.5-2.1,106.3c0,0,3,9.7,16.8,10c0,0,18-1.4,23.9,6.7
		c0,0-44,10.6-88.5,0c0,0-2.5-6.6,26.2-7.8c0,0,9.8-0.6,12.5-9.2c2.6-8.6,3.9-86.4-4.6-105.6c0,0-86.4-20.8-52.3-102.7
		c0.9-2.2,8.1-16.6,14.6-25.8c6.2-8.8,16.3,4.1,5.6,8.7c-15.9,3-18.4,34.2-10.8,42.5c14.5,10.4,15.2-1.6,15.9-9.7
		c1.3-14,9-13.6,11.7-13c7.2,2,14.3,11.4,4.9,20.9s-13.1,32.2,9.2,24.3c7.4-5.4,22.8-14.3,17.8-30.1c0,0-5.6-18.5,6.1-11.1
		c0,0,17.6,12.4,4.8,25.8c-12.9,13.5-20.5,29.3-3.7,36.3c0,0,13,6.4,28.4-14.1C169,252.7,176.3,225.5,174.7,246.2z"/>
	<path class="st0" d="M110.3,224.7c0,2.6-2.1,4.7-4.8,4.7c-2.6,0-4.8-2.1-4.8-4.7c0-2.6,2.1-4.7,4.8-4.7
		C108.1,220,110.3,222.1,110.3,224.7z"/>
	<path class="st0" d="M167.3,223.4c0,3.3-2.9,6-6.6,6c-3.6,0-6.6-2.7-6.6-6c0-3.3,2.9-6,6.6-6C164.3,217.4,167.3,220.1,167.3,223.4z
		"/>
	<g>
		<path class="st0" d="M130.6,163.4c0,7.2-5.3,13-11.8,13c-6.5,0-11.8-5.8-11.8-13c0-7.2,5.3-13,11.8-13
			C125.4,150.4,130.6,156.2,130.6,163.4z"/>
		<path class="st0" d="M116.2,157.8c-0.6,2-2.2,3.4-3.6,3.1c-1.3-0.3-1.9-2.2-1.3-4.2c0.6-2,2.2-3.4,3.6-3.1
			C116.3,153.9,116.9,155.8,116.2,157.8z"/>
	</g>
</g>
<g>
	<path class="st0" d="M151.6,326.5h12.7v78h38.2v5.4h-50.9V326.5z"/>
	<path class="st0" d="M244.9,409.8c-1.5-0.8-2.8-2-3.9-3.6c-1-1.5-1.6-3.3-1.6-5.2c-1.4,1.1-2.7,2.3-4,3.5c-1.3,1.2-2.7,2.3-4.3,3.3
		c-1.5,1-3.3,1.8-5.1,2.4c-1.9,0.6-4.1,0.9-6.5,0.9c-2.3,0-4.4-0.4-6.2-1.2c-1.8-0.8-3.4-1.9-4.7-3.4c-1.3-1.4-2.3-3.1-3-5.1
		c-0.7-2-1.1-4.1-1.1-6.4c0-2.8,0.5-5.3,1.5-7.5c1-2.2,2.4-4.2,4.1-5.9c1.7-1.7,3.7-3.3,6-4.7c2.3-1.4,4.7-2.6,7.3-3.6
		c2.6-1.1,5.3-2,8-2.9c2.7-0.8,5.4-1.6,8-2.3v-4c0-2.9-0.2-5.4-0.6-7.4c-0.4-2-1-3.6-1.8-4.9c-0.8-1.2-1.8-2.1-3.1-2.6
		c-1.2-0.5-2.7-0.8-4.4-0.8c-1.6,0-3.1,0.4-4.5,1.1c-1.4,0.7-2.6,1.7-3.6,2.9c-1,1.2-1.9,2.6-2.6,4.2c-0.7,1.6-1.1,3.3-1.3,5.1H207
		c0.3-2.8,1.2-5.2,2.6-7.4c1.4-2.2,3.2-4,5.4-5.5c2.2-1.5,4.6-2.6,7.4-3.4c2.8-0.8,5.6-1.2,8.6-1.2c3.8,0,7,0.4,9.6,1.2
		c2.6,0.8,4.7,2,6.2,3.4c1.6,1.5,2.7,3.3,3.3,5.4c0.7,2.1,1,4.5,1,7V401c0,2,0.5,3.7,1.6,5.2c1,1.5,2.3,2.7,3.9,3.6H244.9z
		 M239.5,372.4c-1.7,0.6-3.4,1.3-5.2,2c-1.8,0.8-3.5,1.6-5.3,2.5c-1.7,0.9-3.4,2-4.9,3c-1.6,1.1-2.9,2.3-4.1,3.5
		c-1.2,1.3-2.1,2.6-2.8,4c-0.7,1.4-1,2.8-1,4.3c0,1.6,0.3,3.1,0.8,4.5c0.5,1.4,1.2,2.6,2.1,3.7c0.9,1.1,1.9,1.9,3,2.5
		c1.1,0.6,2.3,0.9,3.5,0.9c1.3,0,2.5-0.2,3.7-0.6c1.2-0.4,2.3-0.9,3.4-1.5c1.1-0.6,2.2-1.4,3.3-2.2c1.1-0.8,2.2-1.7,3.4-2.7V372.4z"
		/>
	<path class="st0" d="M283.3,326.5l28.6,66.3l26.6-66.3h6.1l-34.4,85.3h-3.3l-37-85.3H283.3z"/>
	<path class="st0" d="M369.1,411.2c-4,0-7.7-0.8-11.2-2.5c-3.5-1.6-6.5-3.9-9.1-6.7c-2.6-2.8-4.6-6.1-6.1-9.9
		c-1.5-3.8-2.3-7.8-2.3-12.1c0-5.2,0.7-9.9,2.1-14.3c1.4-4.4,3.3-8.2,5.8-11.3c2.5-3.2,5.5-5.7,9.1-7.5c3.5-1.8,7.5-2.7,11.8-2.7
		c3.8,0,7.3,0.7,10.5,2.2c3.2,1.5,6,3.5,8.3,6c2.3,2.5,4.1,5.4,5.4,8.6c1.3,3.3,1.9,6.7,1.9,10.2h-43.6c0,4.3,0.5,8.3,1.5,12
		c1,3.7,2.4,6.9,4.3,9.6s4,4.8,6.5,6.3c2.5,1.5,5.3,2.3,8.3,2.3c2.5,0,4.9-0.4,7.3-1.4c2.3-0.9,4.4-2.1,6.3-3.6
		c1.9-1.5,3.5-3.1,4.8-5c1.3-1.9,2.3-3.8,2.8-5.8l3.4,1.6c-0.8,3.3-2.2,6.4-4.1,9.3c-1.9,2.9-4,5.4-6.5,7.6
		c-2.5,2.2-5.2,3.9-8.1,5.1C375.1,410.6,372.1,411.2,369.1,411.2z M380.6,366.2c0-2.4-0.4-4.7-1.2-6.8c-0.8-2.1-1.9-3.9-3.2-5.4
		c-1.4-1.5-3-2.7-4.8-3.6c-1.8-0.9-3.8-1.3-5.9-1.3c-1.8,0-3.4,0.4-5,1.3c-1.6,0.9-3,2.1-4.3,3.6c-1.3,1.5-2.3,3.3-3.1,5.4
		c-0.8,2.1-1.3,4.4-1.5,6.8L380.6,366.2z"/>
	<path class="st0" d="M416.2,344.3h1.8l1.5,13.1c0.9-1.9,2.1-3.7,3.4-5.3c1.4-1.6,2.9-3,4.5-4.1c1.7-1.2,3.4-2.1,5.3-2.7
		c1.8-0.6,3.7-1,5.6-1c1.7,0,3.4,0.3,5.1,0.8s3.2,1.3,4.7,2.4l-3.7,10.8c-0.8-0.9-1.6-1.7-2.4-2.2c-0.8-0.6-1.7-1-2.6-1.3
		c-0.9-0.3-1.8-0.5-2.7-0.6c-0.9-0.1-1.8-0.1-2.7-0.1c-1.4,0-2.9,0.2-4.3,0.7c-1.4,0.5-2.7,1.1-4,2c-1.3,0.9-2.4,2.1-3.5,3.5
		c-1.1,1.4-2,3-2.8,4.9v44.8h-11.6v-62.1L416.2,344.3z"/>
	<path class="st0" d="M478.4,411.2c-4.5,0-8.6-0.9-12.4-2.6c-3.8-1.7-7-4.1-9.8-7c-2.7-3-4.9-6.4-6.4-10.4s-2.3-8.2-2.3-12.7
		c0-4.7,0.8-9.2,2.3-13.4c1.5-4.2,3.7-7.8,6.4-10.9c2.7-3.1,6-5.5,9.8-7.3c3.8-1.8,7.9-2.7,12.4-2.7c4.5,0,8.6,0.8,12.3,2.5
		c3.8,1.6,7,3.9,9.7,6.7c2.7,2.9,4.9,6.2,6.4,10c1.5,3.8,2.3,8,2.3,12.4c0,4.9-0.8,9.4-2.3,13.7c-1.5,4.3-3.7,8-6.4,11.3
		c-2.7,3.2-6,5.7-9.7,7.6C487,410.3,482.9,411.2,478.4,411.2z M480.6,406.5c2.3,0,4.4-0.6,6.3-1.9c1.9-1.3,3.5-3,4.9-5.2
		c1.4-2.2,2.4-4.7,3.2-7.6c0.8-2.9,1.1-6,1.1-9.2c0-4.7-0.4-9-1.1-13.1c-0.7-4.1-1.9-7.6-3.5-10.6c-1.6-3-3.8-5.4-6.4-7.1
		c-2.6-1.7-5.8-2.6-9.6-2.6c-1.9,0-3.8,0.6-5.7,1.9c-1.8,1.2-3.4,2.9-4.8,5.1c-1.4,2.1-2.5,4.6-3.3,7.5c-0.8,2.9-1.3,5.9-1.3,9.1
		c0,4.7,0.4,9.1,1.3,13.2c0.9,4.1,2.2,7.7,3.9,10.8c1.7,3.1,3.8,5.5,6.3,7.3C474.6,405.6,477.4,406.5,480.6,406.5z"/>
	<path class="st0" d="M528.7,344.3h3.3v13c3.5-4.4,7.2-7.6,11-9.8c3.8-2.2,7.7-3.2,11.6-3.2c2.1,0,4,0.5,5.7,1.5s3.3,2.4,4.7,4.1
		c1.3,1.8,2.4,3.8,3.1,6.2c0.8,2.4,1.1,4.9,1.1,7.6v46.1h-11.6v-43.9c0-2.1-0.2-4-0.7-5.6c-0.5-1.6-1.1-3-1.9-4.1
		c-0.8-1.1-1.8-1.9-2.9-2.5c-1.1-0.6-2.4-0.8-3.7-0.8c-1.2,0-2.5,0.2-3.9,0.7c-1.4,0.5-2.8,1.1-4.2,1.9c-1.4,0.8-2.8,1.8-4.3,2.9
		c-1.4,1.1-2.8,2.4-4.1,3.8v47.7h-11.7v-62L528.7,344.3z"/>
	<path class="st0" d="M609.3,411.2c-4,0-7.7-0.8-11.2-2.5c-3.5-1.6-6.5-3.9-9.1-6.7c-2.6-2.8-4.6-6.1-6.1-9.9
		c-1.5-3.8-2.3-7.8-2.3-12.1c0-5.2,0.7-9.9,2.1-14.3c1.4-4.4,3.3-8.2,5.8-11.3c2.5-3.2,5.5-5.7,9.1-7.5c3.5-1.8,7.5-2.7,11.8-2.7
		c3.8,0,7.3,0.7,10.5,2.2c3.2,1.5,6,3.5,8.3,6c2.3,2.5,4.1,5.4,5.4,8.6s1.9,6.7,1.9,10.2h-43.6c0,4.3,0.5,8.3,1.5,12
		c1,3.7,2.4,6.9,4.3,9.6c1.8,2.7,4,4.8,6.5,6.3c2.5,1.5,5.3,2.3,8.3,2.3c2.5,0,4.9-0.4,7.3-1.4c2.3-0.9,4.4-2.1,6.3-3.6
		c1.9-1.5,3.5-3.1,4.8-5c1.3-1.9,2.3-3.8,2.8-5.8l3.4,1.6c-0.8,3.3-2.2,6.4-4.1,9.3c-1.9,2.9-4,5.4-6.5,7.6
		c-2.5,2.2-5.2,3.9-8.1,5.1C615.3,410.6,612.3,411.2,609.3,411.2z M620.8,366.2c0-2.4-0.4-4.7-1.2-6.8s-1.9-3.9-3.2-5.4
		c-1.4-1.5-3-2.7-4.8-3.6c-1.8-0.9-3.8-1.3-5.9-1.3c-1.8,0-3.4,0.4-5,1.3c-1.6,0.9-3,2.1-4.3,3.6c-1.3,1.5-2.3,3.3-3.1,5.4
		c-0.8,2.1-1.3,4.4-1.5,6.8L620.8,366.2z"/>
	<path class="st0" d="M665.7,406.8c1.6,0,3-0.3,4.3-0.8s2.5-1.2,3.5-2.1c1-0.9,1.7-1.9,2.3-3c0.5-1.2,0.8-2.3,0.8-3.6
		c0-2-0.4-3.7-1.3-5.2c-0.9-1.5-2.1-2.8-3.5-3.9c-1.5-1.2-3.1-2.2-5-3.2c-1.9-1-3.8-2-5.7-3s-3.8-2.1-5.7-3.3
		c-1.9-1.2-3.5-2.5-5-4.1c-1.5-1.5-2.6-3.3-3.5-5.4c-0.9-2-1.3-4.4-1.3-7.1c0-2.6,0.5-4.9,1.5-7.1c1-2.2,2.4-4.1,4.1-5.7
		c1.8-1.6,3.9-2.8,6.3-3.7c2.4-0.9,5.1-1.4,8-1.4c1.9,0,3.8,0.1,5.4,0.4c1.7,0.3,3.3,0.9,4.9,1.7c1.6,0.8,3.2,2,4.8,3.6
		c1.6,1.6,3.3,3.6,5.1,6.1l-4.3,4.2c-2.2-4-4.7-6.9-7.4-8.9c-2.7-1.9-5.6-2.9-8.7-2.9c-1.7,0-3.2,0.2-4.6,0.7
		c-1.4,0.4-2.5,1-3.5,1.8s-1.7,1.7-2.3,2.7c-0.6,1-0.8,2.2-0.8,3.3c0,1.9,0.5,3.6,1.5,5c1,1.4,2.3,2.7,3.9,3.9
		c1.6,1.2,3.4,2.2,5.5,3.2s4.1,1.9,6.2,3c2.1,1,4.2,2.1,6.2,3.3c2,1.2,3.9,2.5,5.5,4.1c1.6,1.5,2.9,3.3,3.9,5.3s1.5,4.4,1.5,7
		c0,2.7-0.5,5.3-1.4,7.6c-0.9,2.4-2.3,4.4-4.1,6.2c-1.8,1.7-4.2,3.1-6.9,4.1c-2.8,1-6.1,1.5-9.8,1.5c-1.7,0-3.5-0.1-5.3-0.4
		c-1.8-0.3-3.6-0.9-5.5-1.7s-3.7-2.1-5.5-3.6c-1.8-1.5-3.6-3.6-5.4-6.1l4.7-4.7c1.4,2.2,2.8,4,4.1,5.6c1.3,1.5,2.6,2.8,4,3.8
		c1.4,1,2.7,1.7,4.2,2.1C662.5,406.5,664.1,406.8,665.7,406.8z"/>
	<path class="st0" d="M735.5,409.8c-1.5-0.8-2.8-2-3.9-3.6c-1-1.5-1.6-3.3-1.6-5.2c-1.4,1.1-2.7,2.3-4,3.5c-1.3,1.2-2.7,2.3-4.3,3.3
		c-1.5,1-3.3,1.8-5.1,2.4c-1.9,0.6-4.1,0.9-6.5,0.9c-2.3,0-4.4-0.4-6.2-1.2c-1.8-0.8-3.4-1.9-4.7-3.4c-1.3-1.4-2.3-3.1-3-5.1
		c-0.7-2-1.1-4.1-1.1-6.4c0-2.8,0.5-5.3,1.5-7.5c1-2.2,2.4-4.2,4.1-5.9c1.7-1.7,3.7-3.3,6-4.7c2.3-1.4,4.7-2.6,7.3-3.6
		c2.6-1.1,5.3-2,8-2.9c2.7-0.8,5.4-1.6,8-2.3v-4c0-2.9-0.2-5.4-0.6-7.4c-0.4-2-1-3.6-1.8-4.9c-0.8-1.2-1.8-2.1-3.1-2.6
		s-2.7-0.8-4.4-0.8c-1.6,0-3.1,0.4-4.5,1.1c-1.4,0.7-2.6,1.7-3.6,2.9c-1,1.2-1.9,2.6-2.6,4.2c-0.7,1.6-1.1,3.3-1.3,5.1h-10.6
		c0.3-2.8,1.2-5.2,2.6-7.4c1.4-2.2,3.2-4,5.4-5.5c2.2-1.5,4.6-2.6,7.4-3.4c2.8-0.8,5.6-1.2,8.6-1.2c3.8,0,7,0.4,9.6,1.2
		c2.6,0.8,4.7,2,6.2,3.4c1.6,1.5,2.7,3.3,3.3,5.4c0.7,2.1,1,4.5,1,7V401c0,2,0.5,3.7,1.6,5.2c1,1.5,2.3,2.7,3.9,3.6H735.5z
		 M730.1,372.4c-1.7,0.6-3.4,1.3-5.2,2c-1.8,0.8-3.5,1.6-5.3,2.5c-1.7,0.9-3.4,2-4.9,3c-1.6,1.1-2.9,2.3-4.1,3.5
		c-1.2,1.3-2.1,2.6-2.8,4c-0.7,1.4-1,2.8-1,4.3c0,1.6,0.3,3.1,0.8,4.5c0.5,1.4,1.2,2.6,2.1,3.7c0.9,1.1,1.9,1.9,3,2.5
		c1.1,0.6,2.3,0.9,3.5,0.9c1.3,0,2.5-0.2,3.7-0.6c1.2-0.4,2.3-0.9,3.4-1.5c1.1-0.6,2.2-1.4,3.3-2.2c1.1-0.8,2.2-1.7,3.4-2.7V372.4z"
		/>
</g>
<g>
	<path class="st0" d="M179.3,284.9c-1.2-2.9-1.9-3.9-4.1-4.2l-0.9-0.1c-0.4-0.3-0.3-1,0.1-1.3c1.5,0.1,3.1,0.2,5.3,0.2
		c2.3,0,4-0.1,6.2-0.2c0.4,0.2,0.5,1,0.1,1.3l-0.8,0.1c-1.9,0.3-2.4,0.6-2.4,1c0.1,0.5,1,3.3,2.6,7.2c2.4,5.9,4.7,11.8,7.3,17.7
		c1.6-3.4,3.7-8.6,4.9-11.4c1.5-3.5,3.9-9.3,4.8-11.5c0.4-1.1,0.5-1.6,0.5-2c0-0.4-0.5-0.8-2.3-1l-0.9-0.1c-0.4-0.3-0.3-1.1,0.1-1.3
		c1.4,0.1,3.4,0.2,5.3,0.2c1.7,0,3.3-0.1,5-0.2c0.4,0.2,0.4,1,0.1,1.3l-1.5,0.1c-1.2,0.1-2,0.7-2.7,1.8c-1.4,2.4-3.4,6.6-5.7,11.8
		l-2.8,6.3c-2,4.7-4.5,10.6-5.3,13.4c-0.2,0.1-0.4,0.2-0.6,0.2c-0.3,0-0.5-0.1-0.8-0.2c-0.6-2.1-1.5-4.7-2.4-6.8L179.3,284.9z"/>
	<path class="st0" d="M213.3,298.5c0-2,0-2.3-1.4-3.2l-0.5-0.3c-0.2-0.2-0.2-0.8,0.1-0.9c1.2-0.4,4.1-1.7,5.3-2.5
		c0.3,0,0.5,0.1,0.5,0.3c-0.1,1.8-0.2,4.2-0.2,6.3v9.2c0,3.7,0.1,4.2,1.9,4.5l1.1,0.2c0.4,0.3,0.3,1.1-0.1,1.3
		c-1.5-0.1-3-0.2-4.8-0.2c-1.8,0-3.4,0.1-4.8,0.2c-0.4-0.2-0.5-1-0.1-1.3l1.1-0.2c1.9-0.3,1.9-0.8,1.9-4.5V298.5z M217.5,283.9
		c0,1.8-1.3,2.7-2.7,2.7c-1.6,0-2.6-1.2-2.6-2.6c0-1.7,1.2-2.8,2.8-2.8C216.5,281.3,217.5,282.5,217.5,283.9z"/>
	<path class="st0" d="M226.4,298.5c0-2,0-2.3-1.4-3.2l-0.5-0.3c-0.2-0.2-0.2-0.8,0.1-0.9c1.2-0.4,4.1-1.7,5.1-2.5
		c0.2,0,0.5,0.1,0.6,0.4c-0.1,1.2-0.1,1.9-0.1,2.4c0,0.3,0.2,0.6,0.6,0.6c2.1-1.3,4.6-2.6,7.2-2.6c4.2,0,6,2.9,6,6.3v8.8
		c0,3.7,0.1,4.2,1.9,4.5l1.1,0.2c0.4,0.3,0.3,1.1-0.1,1.3c-1.5-0.1-3-0.2-4.8-0.2c-1.8,0-3.4,0.1-4.8,0.2c-0.4-0.2-0.5-1-0.1-1.3
		l1-0.2c1.9-0.3,1.9-0.8,1.9-4.5v-7.6c0-2.9-1.3-5.1-4.8-5.1c-1.9,0-3.6,0.8-4.4,1.8c-0.7,0.9-0.8,1.6-0.8,3.1v7.8
		c0,3.7,0.1,4.1,1.9,4.5l0.9,0.2c0.4,0.3,0.3,1.1-0.1,1.3c-1.4-0.1-2.9-0.2-4.7-0.2c-1.8,0-3.4,0.1-4.8,0.2c-0.4-0.2-0.5-1-0.1-1.3
		l1.1-0.2c1.9-0.3,1.9-0.8,1.9-4.5V298.5z"/>
	<path class="st0" d="M271.4,302.9c0,6.4-4.4,11-10.8,11c-5.9,0-10.5-4.1-10.5-10.5c0-6.4,4.9-11.1,10.9-11.1
		C266.7,292.3,271.4,296.6,271.4,302.9z M260.4,293.9c-3.4,0-5.9,3.2-5.9,8.9c0,4.7,2.1,9.7,6.6,9.7c4.5,0,5.9-4.7,5.9-8.6
		C267,299.4,265.2,293.9,260.4,293.9z"/>
	<path class="st0" d="M287.2,293.3c0.5,1.1,0.8,2.8,0.8,4.1c-0.2,0.4-1,0.5-1.2,0.2c-0.9-2.3-2.4-3.7-4.5-3.7c-2,0-3.3,1.3-3.3,3.1
		c0,2.1,2.1,3.2,3.9,4.2c2.7,1.5,5.2,3.3,5.2,6.9c0,3.9-3.6,5.8-7.4,5.8c-2.4,0-4.2-0.5-5.5-1.5c-0.4-1-0.7-3.5-0.6-5.2
		c0.3-0.3,0.9-0.4,1.2-0.1c0.9,2.8,2.5,5.3,5.4,5.3c1.8,0,3.4-1.1,3.4-3.3c0-2.4-2-3.6-3.9-4.7c-3-1.7-5.1-3.5-5.1-6.3
		c0-3.7,3.1-5.8,7-5.8C284.8,292.3,286.7,292.8,287.2,293.3z"/>
	<path class="st0" d="M303.7,323.8c0-1.4,0.9-2,2-2h1c0.8,0,1.3-0.4,1.7-0.9c1.5-2.3,2.5-4.5,3-5.7c0.2-0.4,0.5-1.5,0.5-2.2
		c0-1-0.2-1.6-0.9-3.5l-4-11c-0.9-2.4-1.2-3.6-3-4l-1.3-0.3c-0.3-0.3-0.3-1.1,0.2-1.3c1.6,0.1,3.2,0.2,4.9,0.2
		c1.4,0,2.8-0.1,4.5-0.2c0.4,0.2,0.5,1,0.1,1.3l-1.3,0.3c-0.7,0.2-1.1,0.3-1.1,0.7c0,0.6,1.2,3.9,1.5,4.8l1.6,4.7
		c0.3,0.8,1.3,3.5,1.5,3.6c0.2-0.1,1-1.7,1.9-3.8l1.7-4c1.1-2.7,1.8-4.6,1.8-5.1c0-0.4-0.3-0.7-1.2-0.9l-1.6-0.3
		c-0.4-0.3-0.3-1.1,0.1-1.3c1.6,0.1,3.2,0.2,4.5,0.2c1.3,0,2.5-0.1,3.9-0.2c0.4,0.2,0.5,1,0.1,1.3l-0.9,0.2
		c-1.7,0.3-2.6,1.8-4.4,5.4l-2.9,5.9c-1.7,3.4-5.9,12.3-8.4,17.9c-0.9,1.9-2.1,2.4-3.3,2.4C304.5,326,303.7,325,303.7,323.8z"/>
	<path class="st0" d="M344.2,287.1c0-5.4-0.1-6.2-3.3-6.4l-1.3-0.1c-0.3-0.2-0.2-1.1,0.1-1.3c2.9,0.1,4.6,0.2,6.7,0.2
		c2,0,3.7-0.1,6.3-0.2c0.3,0.2,0.4,1.1,0.1,1.3l-1.2,0.1c-3,0.3-3.1,1.1-3.1,6.4v17.8c0,3.2,0.2,4.6,1.1,5.5
		c0.6,0.6,1.5,1.2,5.6,1.2c4.4,0,5.4-0.2,6.2-0.7c1-0.6,2.4-2.5,3.4-5.1c0.3-0.3,1.3-0.1,1.3,0.3c0,0.6-1.4,5.8-2.1,7.2
		c-2.6-0.1-7.5-0.2-12.7-0.2h-4.7c-2.1,0-3.8,0.1-6.7,0.2c-0.3-0.2-0.4-1-0.1-1.3l1.5-0.2c3-0.3,3.1-1,3.1-6.4V287.1z"/>
	<path class="st0" d="M371,298.5c0-2,0-2.3-1.4-3.2l-0.5-0.3c-0.2-0.2-0.2-0.8,0.1-0.9c1.2-0.4,4.1-1.7,5.3-2.5
		c0.3,0,0.5,0.1,0.5,0.3c-0.1,1.8-0.2,4.2-0.2,6.3v9.2c0,3.7,0.1,4.2,1.9,4.5l1.1,0.2c0.4,0.3,0.3,1.1-0.1,1.3
		c-1.5-0.1-3-0.2-4.8-0.2c-1.8,0-3.4,0.1-4.8,0.2c-0.4-0.2-0.5-1-0.1-1.3l1.1-0.2c1.9-0.3,1.9-0.8,1.9-4.5V298.5z M375.2,283.9
		c0,1.8-1.3,2.7-2.7,2.7c-1.6,0-2.6-1.2-2.6-2.6c0-1.7,1.2-2.8,2.8-2.8C374.2,281.3,375.2,282.5,375.2,283.9z"/>
	<path class="st0" d="M397.9,293.2c0.4,0.4,0.8,1.2,0.8,2c0,0.9-0.5,1.9-1.1,1.9c-0.3,0-0.5-0.1-0.7-0.4c-1.1-1.4-3-2.7-5.1-2.7
		c-3.6,0-7.1,2.8-7.1,8.2c0,4,2.8,8.8,8.2,8.8c3,0,4.5-1.3,5.7-3.1c0.4-0.1,0.9,0.3,0.9,0.7c-1.7,3.8-5.6,5.2-8.5,5.2
		c-2.7,0-5.2-0.9-7-2.6c-1.8-1.7-3-4.2-3-7.6c0-5.5,3.9-11.4,12.4-11.4C394.5,292.3,396.5,292.6,397.9,293.2z"/>
	<path class="st0" d="M422.7,302.9c0,6.4-4.4,11-10.8,11c-5.9,0-10.5-4.1-10.5-10.5c0-6.4,4.9-11.1,10.9-11.1
		C418,292.3,422.7,296.6,422.7,302.9z M411.7,293.9c-3.4,0-5.9,3.2-5.9,8.9c0,4.7,2.1,9.7,6.6,9.7c4.5,0,5.9-4.7,5.9-8.6
		C418.3,299.4,416.5,293.9,411.7,293.9z"/>
	<path class="st0" d="M429.5,298.5c0-2,0-2.3-1.4-3.2l-0.5-0.3c-0.2-0.2-0.2-0.8,0.1-0.9c1.2-0.4,3.9-1.7,5.2-2.5
		c0.3,0.1,0.4,0.2,0.4,0.4v3c0,0.3,0.1,0.4,0.2,0.5c1.8-1.5,3.7-3.1,5.6-3.1c1.3,0,2.3,0.8,2.3,2c0,1.7-1.4,2.4-2.2,2.4
		c-0.5,0-0.8-0.2-1.1-0.4c-0.8-0.5-1.5-0.8-2.3-0.8c-0.8,0-1.4,0.5-1.8,1c-0.5,0.7-0.7,2.2-0.7,3.9v7c0,3.7,0.1,4.3,2,4.5l1.8,0.2
		c0.4,0.3,0.3,1.1-0.1,1.3c-2.4-0.1-3.9-0.2-5.7-0.2c-1.8,0-3.4,0.1-4.7,0.2c-0.4-0.2-0.5-1-0.1-1.3l1-0.2c1.9-0.3,1.9-0.8,1.9-4.5
		V298.5z"/>
	<path class="st0" d="M447.6,300.1c-1.3,0-1.4,0.1-1.4,1.4c0,5.2,3,9.6,8.5,9.6c1.7,0,3.1-0.5,4.7-2.5c0.5-0.2,0.9,0.2,0.9,0.6
		c-1.7,3.5-5.4,4.8-8,4.8c-3.3,0-5.9-1.4-7.4-3.4c-1.5-2-2.1-4.4-2.1-6.7c0-6.3,4.1-11.6,10.3-11.6c4.4,0,7.3,3,7.3,6.1
		c0,0.7-0.1,1.1-0.2,1.3c-0.2,0.3-0.9,0.4-3,0.4H447.6z M450.8,298.6c3.8,0,4.9-0.2,5.3-0.5c0.2-0.1,0.3-0.3,0.3-1
		c0-1.4-1-3.2-3.9-3.2c-3,0-5.6,2.8-5.7,4.5c0,0.1,0,0.3,0.4,0.3H450.8z"/>
	<path class="st0" d="M475.2,293.3c0.5,1.1,0.8,2.8,0.8,4.1c-0.2,0.4-1,0.5-1.2,0.2c-0.9-2.3-2.4-3.7-4.5-3.7c-2,0-3.3,1.3-3.3,3.1
		c0,2.1,2.1,3.2,3.9,4.2c2.7,1.5,5.2,3.3,5.2,6.9c0,3.9-3.6,5.8-7.4,5.8c-2.4,0-4.2-0.5-5.5-1.5c-0.4-1-0.7-3.5-0.6-5.2
		c0.3-0.3,0.9-0.4,1.2-0.1c0.9,2.8,2.5,5.3,5.4,5.3c1.8,0,3.4-1.1,3.4-3.3c0-2.4-2-3.6-3.9-4.7c-3-1.7-5.1-3.5-5.1-6.3
		c0-3.7,3.1-5.8,7-5.8C472.9,292.3,474.8,292.8,475.2,293.3z"/>
</g>
</svg>
