<?xml version="1.0" encoding="utf-8"?>
<!-- Generator: Adobe Illustrator 23.0.3, SVG Export Plug-In . SVG Version: 6.00 Build 0)  -->
<svg version="1.1" id="Layer_1" xmlns="http://www.w3.org/2000/svg" xmlns:xlink="http://www.w3.org/1999/xlink" x="0px" y="0px"
	 viewBox="0 0 90 112.5" style="enable-background:new 0 0 90 112.5;" xml:space="preserve">
<style type="text/css">
	.st0{fill:#FFFFFF;}
</style>
<path class="st0" d="M67.7,29H22.3c-1.3,0-2.4,1.1-2.4,2.4v27c0,1.3,1.1,2.4,2.4,2.4h45.4c1.3,0,2.4-1.1,2.4-2.4v-27
	C70.2,30.1,69.1,29,67.7,29z M68.7,58.4C68.4,58.8,68,59,67.6,59c-0.3,0-0.6-0.1-0.8-0.3l-0.3-0.2l-16.2-12l-3,2.3
	c-0.7,0.5-1.5,0.8-2.3,0.8s-1.6-0.3-2.3-0.8l-3-2.3L23.3,58.7c-0.2,0.2-0.5,0.3-0.8,0.3c-0.4,0-0.8-0.2-1.1-0.6
	c-0.5-0.6-0.3-1.5,0.3-1.9l15.9-11.8L23.1,33.5c-0.6-0.5-0.7-1.3-0.2-1.9s1.3-0.7,1.9-0.2l19.7,15.2c0.3,0.3,0.8,0.3,1.2,0
	l19.7-15.2c0.6-0.5,1.5-0.4,1.9,0.2c0.5,0.6,0.4,1.5-0.2,1.9L52.5,44.7l15.9,11.8C69,56.9,69.1,57.8,68.7,58.4z"/>
<path class="st0" d="M45,5.5C23.2,5.5,5.5,23.2,5.5,45S23.2,84.5,45,84.5S84.5,66.8,84.5,45S66.8,5.5,45,5.5z M72.9,58.5
	c0,2.9-2.3,5.2-5.2,5.2H22.3c-2.9,0-5.2-2.3-5.2-5.2v-27c0-2.9,2.3-5.2,5.2-5.2h45.4c2.9,0,5.2,2.3,5.2,5.2
	C72.9,31.5,72.9,58.5,72.9,58.5z"/>
</svg>
