<?xml version="1.0" encoding="utf-8"?>
<!-- Generator: Adobe Illustrator 23.0.3, SVG Export Plug-In . SVG Version: 6.00 Build 0)  -->
<svg version="1.1" id="Layer_1" xmlns="http://www.w3.org/2000/svg" xmlns:xlink="http://www.w3.org/1999/xlink" x="0px" y="0px"
	 viewBox="0 0 100 125" style="enable-background:new 0 0 100 125;" xml:space="preserve">
<style type="text/css">
	.st0{fill:#FFFFFF;}
</style>
<title>08</title>
<g>
	<path class="st0" d="M95.8,51.7c0-0.4-0.1-0.9-0.4-1.2L89.6,43l0,0l-6.4-13.5c-2-4.2-6.2-6.8-10.8-6.8H60.6v-3.1c0-1.1-0.9-2-2-2
		H15.9c-1.1,0-2,0.9-2,2s0.9,2,2,2h40.8V44c0,1.1,0.9,2,2,2H87l5,6.4v17.1h-7.7c-1.1-6-6.8-10.1-12.9-9c-4.6,0.8-8.2,4.4-9,9H42.5
		c-1.1-6-6.8-10.1-12.9-9c-4.6,0.8-8.2,4.4-9,9h-5.7c-1.1,0-2,0.9-2,2s0.9,2,2,2h5.7c1.1,6,6.9,10,13,8.9c4.5-0.8,8-4.4,8.9-8.9
		h19.8c1.1,6,6.9,10,13,8.9c4.5-0.8,8-4.4,8.9-8.9h7.7c2.2,0,4-1.8,4-4L95.8,51.7z M60.6,26.7h11.8c3.1,0,5.9,1.8,7.2,4.6L84.7,42
		H60.6V26.7z M31.5,78.5c-3.9,0-7.1-3.2-7.1-7.1s3.2-7.1,7.1-7.1s7.1,3.2,7.1,7.1l0,0C38.6,75.3,35.4,78.5,31.5,78.5z M73.2,78.5
		c-3.9,0-7.1-3.2-7.1-7.1s3.2-7.1,7.1-7.1s7.1,3.2,7.1,7.1l0,0C80.3,75.3,77.1,78.5,73.2,78.5z"/>
	<path class="st0" d="M24.2,56c0-1.1-0.9-2-2-2h-11c-1.1,0-2,0.9-2,2s0.9,2,2,2h11C23.3,58,24.2,57.1,24.2,56z"/>
	<path class="st0" d="M6.2,46h23c1.1,0,2-0.9,2-2s-0.9-2-2-2h-23c-1.1,0-2,0.9-2,2S5.1,46,6.2,46z"/>
	<path class="st0" d="M9.2,32c0,1.1,0.9,2,2,2h23c1.1,0,2-0.9,2-2c0-1.1-0.9-2-2-2h-23C10.1,30,9.2,30.9,9.2,32z"/>
</g>
</svg>
