<?xml version="1.0" encoding="utf-8"?>
<!-- Generator: Adobe Illustrator 23.0.3, SVG Export Plug-In . SVG Version: 6.00 Build 0)  -->
<svg version="1.1" id="Layer_1" xmlns="http://www.w3.org/2000/svg" xmlns:xlink="http://www.w3.org/1999/xlink" x="0px" y="0px"
	 viewBox="0 0 512 640" style="enable-background:new 0 0 512 640;" xml:space="preserve">
<style type="text/css">
	.st0{fill:#FFFFFF;}
</style>
<title>Bill</title>
<path class="st0" d="M387.4,91c0.2,0,0.4,0,0.6,0c0.4,0,0.7,0,1.1-0.1c9.7,0.2,17.5,8.1,17.5,17.9c0,4.4,3.6,8,8,8s8-3.6,8-8
	c0-15.9-11.1-29.7-26.6-33.1V68c0-4.4-3.6-8-8-8s-8,3.6-8,8v8c-18.1,4.8-28.8,23.4-24,41.5c4,14.8,17.4,25.1,32.7,25.1
	c9.9,0,17.9,8,17.9,17.9s-8,17.9-17.9,17.9s-17.9-8-17.9-17.9c0-4.4-3.6-8-8-8s-8,3.6-8,8c0,15.3,10.3,28.7,25.1,32.7v8.8
	c0,4.4,3.6,8,8,8s8-3.6,8-8v-8.4c18.3-4,29.8-22.1,25.8-40.3c-3.4-15.5-17.2-26.6-33.1-26.6c-9.9,0-17.9-8-17.9-17.9
	C370.9,99.5,378,91.7,387.4,91L387.4,91z"/>
<path class="st0" d="M389.2,20.9C340,20.9,298,53,282.3,96H83.7c-4.4,0-8,4-8,8.4L73.8,385H17.2c-4.4,0-8.2,3.2-8.2,7.6v35.6
	c0.1,33.5,26.5,61.1,60,62.6v0.2h247v-0.2c2,0.1,2.8,0.2,4.1,0.2h0.2c34.7-0.1,62.7-28.2,62.7-62.8V248.1c2,0.1,4.1,0.2,6.2,0.2
	c62.6,0,113.6-51.1,113.6-113.7S451.8,20.9,389.2,20.9z M72,475L72,475c-25.9,0-46.9-21-47-46.8V401h232v27
	c0,16.7,6.7,32.7,18.5,44.5c0.8,0.8,1.9,1.5,2.8,2.5H72z M367,428.2c0,25.8-20.9,46.8-46.7,46.8h-0.2c-25.9,0-47-21-47.1-47v-35.4
	c0.1-4.1-3.1-7.5-7.1-7.6c-0.2,0-0.3,0-0.5,0H89.8l1.8-273h186.2c-1.4,7.3-2.2,14.8-2.2,22.2c0,15.8,3.3,31.4,9.7,45.8h-75.6
	c-4.4,0-8,3.6-8,8s3.6,8,8,8H294c16.5,26,42.9,44,73,50.1V428.2z M389.2,232.3c-53.9,0-97.6-43.7-97.6-97.6s43.7-97.6,97.6-97.6
	s97.6,43.7,97.6,97.6C486.7,188.6,443.1,232.2,389.2,232.3L389.2,232.3z"/>
<path class="st0" d="M158.4,233.2c-14.1,0-25.6,11.1-25.6,24.8c0,13.7,11.5,24.8,25.6,24.8S184,271.7,184,258
	S172.5,233.2,158.4,233.2z M158.4,266.8c-5.3,0-9.6-3.9-9.6-8.8s4.3-8.8,9.6-8.8s9.6,3.9,9.6,8.8C168,262.9,163.7,266.8,158.4,266.8
	z"/>
<path class="st0" d="M201.7,258c0,4.4,3.6,8,8,8h106.7c4.4,0,8-3.6,8-8s-3.6-8-8-8H209.7C205.3,250,201.7,253.6,201.7,258z"/>
<path class="st0" d="M158.4,163.7c-14.1,0-25.6,11.1-25.6,24.8s11.5,24.8,25.6,24.8s25.6-11.1,25.6-24.8S172.5,163.7,158.4,163.7z
	 M158.4,197.3c-5.3,0-9.6-3.9-9.6-8.8s4.3-8.8,9.6-8.8s9.6,3.9,9.6,8.8S163.7,197.3,158.4,197.3L158.4,197.3z"/>
<path class="st0" d="M158.4,302.8c-14.1,0-25.6,11.1-25.6,24.8s11.5,24.8,25.6,24.8s25.6-11.1,25.6-24.8S172.5,302.8,158.4,302.8z
	 M158.4,336.4c-5.3,0-9.6-3.9-9.6-8.8s4.3-8.8,9.6-8.8s9.6,3.9,9.6,8.8S163.7,336.4,158.4,336.4z"/>
<path class="st0" d="M316.4,320H209.7c-4.4,0-8,3.6-8,8s3.6,8,8,8h106.7c4.4,0,8-3.6,8-8S320.8,320,316.4,320z"/>
</svg>
