<?xml version="1.0" encoding="utf-8"?>
<!-- Generator: Adobe Illustrator 23.0.3, SVG Export Plug-In . SVG Version: 6.00 Build 0)  -->
<svg version="1.1" id="Layer_1" xmlns="http://www.w3.org/2000/svg" xmlns:xlink="http://www.w3.org/1999/xlink" x="0px" y="0px"
	 viewBox="0 0 64 80" style="enable-background:new 0 0 64 80;" xml:space="preserve">
<style type="text/css">
	.st0{fill:#FFFFFF;}
</style>
<title>x</title>
<path class="st0" d="M32,56.4c-3,0-5.5-2.5-5.5-5.5V46c-3.4-3-3.7-8.2-0.6-11.6c3-3.4,8.2-3.7,11.6-0.6c3.4,3,3.7,8.2,0.6,11.6
	c-0.2,0.2-0.4,0.4-0.6,0.6v4.9C37.5,53.9,35.1,56.4,32,56.4L32,56.4z M32,35.1c-2.6,0-4.8,2.1-4.8,4.8c0,1.6,0.8,3,2,3.9l0.7,0.5
	v6.6c0,1.1,0.9,2,2.1,2c1.1,0,2-0.9,2-2l0,0v-6.6l0.7-0.5c2.2-1.5,2.7-4.5,1.1-6.7C35,35.8,33.6,35.1,32,35.1z"/>
<path class="st0" d="M43.2,63H20.8c-7,0-12.6-5.6-12.6-12.6V36.7c0-4.3,2.4-8.3,6.3-10.3v-7.8C14.5,8.8,22.3,1,32,1
	s17.5,7.9,17.5,17.5v7.8c3.9,2,6.3,6,6.3,10.3v13.8C55.8,57.4,50.1,63,43.2,63z M19.8,28.5c-0.9,0-1.7,0.1-2.6,0.4
	c-0.5,0.1-0.9,0.3-1.3,0.6c-2.7,1.4-4.3,4.2-4.3,7.2v13.8c0,5.1,4.1,9.2,9.2,9.2h22.4c5.1,0,9.2-4.1,9.2-9.2V36.7
	c0-3.5-2.3-6.7-5.6-7.8c-0.8-0.3-1.7-0.4-2.6-0.4C44.2,28.5,19.8,28.5,19.8,28.5z M32,4.4c-7.8,0-14.1,6.3-14.1,14.1v6.7
	c0.6-0.1,1.3-0.2,1.9-0.1h2.5v-6.5c0-5.4,4.4-9.7,9.7-9.7s9.7,4.4,9.7,9.7V25h2.5c0.6,0,1.3,0,1.9,0.1v-6.6
	C46.1,10.7,39.8,4.4,32,4.4z M25.7,25h12.5v-6.5c0-3.5-2.8-6.3-6.3-6.3s-6.3,2.8-6.3,6.3L25.7,25L25.7,25z"/>
</svg>
