<?xml version="1.0" encoding="utf-8"?>
<!-- Generator: Adobe Illustrator 23.0.3, SVG Export Plug-In . SVG Version: 6.00 Build 0)  -->
<svg version="1.1"
	 id="Layer_1" xmlns:cc="http://creativecommons.org/ns#" xmlns:dc="http://purl.org/dc/elements/1.1/" xmlns:inkscape="http://www.inkscape.org/namespaces/inkscape" xmlns:rdf="http://www.w3.org/1999/02/22-rdf-syntax-ns#" xmlns:sodipodi="http://sodipodi.sourceforge.net/DTD/sodipodi-0.dtd" xmlns:svg="http://www.w3.org/2000/svg"
	 xmlns="http://www.w3.org/2000/svg" xmlns:xlink="http://www.w3.org/1999/xlink" x="0px" y="0px" viewBox="0 0 100 125"
	 style="enable-background:new 0 0 100 125;" xml:space="preserve">
<style type="text/css">
	.st0{fill:#FFFFFF;}
</style>
<g transform="translate(0,-952.36218)">
	<path class="st0" d="M28,962.4c-11,0-25,9.6-25,28.5c0,8.4,4.3,16.4,10.5,23.6c6.1,7.2,14.2,13.7,22.4,19.4c1.3,1,3.2,0.7,4.2-0.7
		c1-1.3,0.7-3.2-0.7-4.2l-0.1-0.1c-7.9-5.5-15.6-11.8-21.2-18.4s-9-13.3-9-19.7c0-16,11.6-22.5,19-22.5c10.5,0,15.9,4.8,19.4,10.5
		c0.9,1.4,2.7,1.9,4.1,1c0.4-0.2,0.8-0.6,1-1c3.5-5.7,9-10.5,19.4-10.5c7.4,0,19,6.6,19,22.5c0,8-5.5,16.7-13.8,24.8
		c-7.9,7.7-18,14.6-27.2,20.2c-0.5-0.3-1-0.6-1.5-0.9c-1.4-0.9-3.3-0.4-4.1,1s-0.4,3.3,1,4.1l0,0c1.1,0.7,2.1,1.3,3.2,1.9
		c0.9,0.6,2.1,0.6,3.1,0c9.8-5.8,21-13.4,29.8-22s15.6-18.4,15.6-29c0-18.9-14-28.5-25-28.5c-10.4,0-17.4,4.5-22,10.1
		C45.4,966.9,38.4,962.4,28,962.4z M17,983.3c-1.4,0-2.7,1-2.9,2.4c-1.8,8.4,3,16.2,7.5,20.8c1.1,1.2,3,1.4,4.2,0.3
		c1.2-1.1,1.4-3,0.3-4.2c-0.1-0.1-0.2-0.2-0.3-0.3c-3.5-3.5-7-10-5.9-15.2c0.4-1.6-0.6-3.2-2.2-3.6C17.5,983.3,17.2,983.3,17,983.3z
		"/>
</g>
</svg>
