<?xml version="1.0" encoding="utf-8"?>
<!-- Generator: Adobe Illustrator 23.0.3, SVG Export Plug-In . SVG Version: 6.00 Build 0)  -->
<svg version="1.1" id="Layer_1" xmlns="http://www.w3.org/2000/svg" xmlns:xlink="http://www.w3.org/1999/xlink" x="0px" y="0px"
	 viewBox="0 0 512 640" style="enable-background:new 0 0 512 640;" xml:space="preserve">
<style type="text/css">
	.st0{fill:#FFFFFF;}
</style>
<title>l8 - 11-2016</title>
<g>
	<path class="st0" d="M51,473.9L43.2,449c-11.6-37.4-13.9-78.1-6.6-117.7c7.1-38.4,23-75.3,46.1-106.7
		c21.6-29.5,49.5-53.9,80.6-70.5c31.4-16.8,65.5-26,101.5-27.2c0-1.1,0-2.3,0-3.5c0-7.4,0-15.1,0-22.7c0.1-13.5,5.1-24.6,14.8-33.1
		c15.1-13.2,35.8-13.3,52.6-0.2c13.3,10.3,26.7,20.9,39.6,31.1l8.9,7c7.4,5.8,14.8,11.7,22.2,17.5c17.8,14,36.2,28.5,54.4,42.6
		c8.8,6.8,19.2,16.7,22.2,33.2l0.1,0.7v6.8l0.5,0.7l-0.6,3.4c-3,16.4-13.4,26.4-22.2,33.2c-41.5,32.3-83.4,65.3-124.6,98
		c-10.8,8.6-24.1,11.8-36.7,8.6c-12.2-3-22-11.4-27-22.9c-2.4-5.4-3.7-12-4.1-19.6c-0.4-7.8-0.3-15.4-0.2-23.5c0-0.6,0-1.2,0-1.8
		c-46.5,2-88.6,17.5-125.2,46c-39.3,30.7-65.8,70.1-81,120.7L51,473.9z M305.4,73.5c-5.5,0-10.7,2-15.3,6.1
		c-6.2,5.4-9.2,12.3-9.3,21.1c0,7.5,0,15.2,0,22.6c0,3.8,0,7.6,0,11.3v8h-8c-36.4,0.1-70.7,8.7-102,25.5c-29,15.6-55,38.4-75.2,65.9
		C73.9,263.5,59,298.1,52.3,334.1c-5.2,28.3-5.2,57.1-0.1,84.6c16.9-41.5,42.9-76.2,77.5-103.1c41.6-32.4,89.7-49.1,143-49.6
		l8.1-0.1v8.1c0,3.4,0,6.8-0.1,10.2c-0.1,7.8-0.2,15.2,0.2,22.6c0.3,5.6,1.2,10.4,2.8,14c3,6.9,8.9,11.9,16.2,13.8
		c7.8,1.9,15.9-0.1,22.9-5.6c41.2-32.7,83.2-65.7,124.7-98.1c9.5-7.4,14.4-14.2,16.1-22.6V201c-1.7-8.5-6.6-15.3-16.1-22.7
		c-18.3-14.1-36.7-28.6-54.5-42.7c-7.4-5.8-14.8-11.7-22.2-17.5l-8.9-7C349,100.9,335.6,90.3,322.4,80
		C316.8,75.6,311,73.5,305.4,73.5z"/>
</g>
</svg>
