<?xml version="1.0" encoding="utf-8"?>
<!-- Generator: Adobe Illustrator 23.0.3, SVG Export Plug-In . SVG Version: 6.00 Build 0)  -->
<svg version="1.1"
	 id="Layer_1" xmlns:cc="http://creativecommons.org/ns#" xmlns:dc="http://purl.org/dc/elements/1.1/" xmlns:inkscape="http://www.inkscape.org/namespaces/inkscape" xmlns:rdf="http://www.w3.org/1999/02/22-rdf-syntax-ns#" xmlns:sodipodi="http://sodipodi.sourceforge.net/DTD/sodipodi-0.dtd" xmlns:svg="http://www.w3.org/2000/svg"
	 xmlns="http://www.w3.org/2000/svg" xmlns:xlink="http://www.w3.org/1999/xlink" x="0px" y="0px" viewBox="0 0 128 160"
	 style="enable-background:new 0 0 128 160;" xml:space="preserve">
<style type="text/css">
	.st0{fill:#FFFFFF;}
</style>
<path class="st0" d="M66,9c-1.7,0-3,1.3-3,3v15c0,1.7,1.3,3,3,3s3-1.3,3-3V12C69,10.3,67.7,9,66,9z M91.2,14
	c-1.2-0.1-2.3,0.5-2.8,1.6l-5,10c-0.8,1.5-0.2,3.3,1.3,4.1c0.4,0.2,0.9,0.3,1.3,0.3c1.1,0,2.2-0.6,2.7-1.7l5-10
	c0.7-1.5,0.1-3.3-1.3-4C92,14.1,91.6,14,91.2,14z M40.8,14.1c-0.4,0-0.8,0.1-1.2,0.3c-1.5,0.7-2.1,2.5-1.3,4l5,10
	c0.5,1,1.6,1.6,2.7,1.6c0.5,0,0.9-0.1,1.3-0.3c1.5-0.7,2.1-2.5,1.3-4l-5-10C43.1,14.6,41.9,14,40.8,14.1z M12,43c-1,0-2,0.5-2.6,1.4
	c-0.5,0.9-0.6,2-0.1,2.9L19,66.7V116c0,1.7,1.3,3,3,3h54h30c1.7,0,3-1.3,3-3V66.7l9.7-19.4c0.4-0.9,0.4-2-0.1-2.9
	C118,43.5,117,43,116,43H86c-1.1,0-2.2,0.6-2.7,1.7L81.6,48H70.4l-1.7-3.3c-0.5-1-1.5-1.7-2.7-1.7H12z M16.9,49h47.3l7,14H23.9
	L16.9,49z M87.9,49h23.3l-7.1,14H80.9L87.9,49z M25,69h48v44H25V69z M79,69h24v44H79V69z M30,100v8h20v-8H30z"/>
</svg>
